<svg xmlns="http://www.w3.org/2000/svg" width="110" height="30" viewBox="0 0 110 30">
  <g id="Group_1322" data-name="Group 1322" transform="translate(-335 -1158.618)">
    <g id="Group_1771" data-name="Group 1771">
      <text id="Filters" transform="translate(383 1182.618)" fill="#050547" font-size="25" font-family="ProductSans-Regular, Product Sans"><tspan x="0" y="0">filters</tspan></text>
    </g>
    <g id="Group_1321" data-name="Group 1321" transform="translate(335 1158.702)">
      <g id="Group_1318" data-name="Group 1318" transform="translate(0 0)">
        <path id="Path_552" data-name="Path 552" d="M25.649,20.1a4.3,4.3,0,0,0-4.1,3.088h-4.39A1.155,1.155,0,0,0,16,24.394,1.194,1.194,0,0,0,17.206,25.6H21.6a4.255,4.255,0,0,0,4.1,3.088A4.313,4.313,0,0,0,29.847,25.6h17.8a1.206,1.206,0,1,0,0-2.412h-17.8A4.417,4.417,0,0,0,25.649,20.1Zm.048,2.412a1.882,1.882,0,1,1-1.882,1.882A1.884,1.884,0,0,1,25.7,22.512Z" transform="translate(-16 -20.1)" fill="#050547"/>
      </g>
      <g id="Group_1319" data-name="Group 1319" transform="translate(0 9.649)">
        <path id="Path_553" data-name="Path 553" d="M40.172,40.1a4.3,4.3,0,0,0-4.1,3.088H17.206A1.166,1.166,0,0,0,16,44.394,1.194,1.194,0,0,0,17.206,45.6H36.071a4.255,4.255,0,0,0,4.1,3.088A4.313,4.313,0,0,0,44.321,45.6H47.65a1.206,1.206,0,1,0,0-2.412H44.321A4.313,4.313,0,0,0,40.172,40.1Zm.048,2.412a1.882,1.882,0,1,1-1.882,1.882A1.854,1.854,0,0,1,40.22,42.512Z" transform="translate(-16 -40.1)" fill="#050547"/>
      </g>
      <g id="Group_1320" data-name="Group 1320" transform="translate(0 20.264)">
        <path id="Path_554" data-name="Path 554" d="M31.439,62.1a4.3,4.3,0,0,0-4.1,3.088H17.206A1.166,1.166,0,0,0,16,66.394,1.194,1.194,0,0,0,17.206,67.6h10.18a4.255,4.255,0,0,0,4.1,3.088A4.313,4.313,0,0,0,35.636,67.6H47.65a1.206,1.206,0,0,0,0-2.412H35.588A4.313,4.313,0,0,0,31.439,62.1Zm.048,2.412a1.882,1.882,0,1,1-1.882,1.882A1.916,1.916,0,0,1,31.487,64.512Z" transform="translate(-16 -62.1)" fill="#050547"/>
      </g>
    </g>
  </g>
</svg>
