<svg id="V2" xmlns="http://www.w3.org/2000/svg" xmlns:xlink="http://www.w3.org/1999/xlink" viewBox="0 0 500 500"><defs><style>.cls-1{fill:url(#Naamloos_verloop_2);}.cls-2{fill:url(#Naamloos_verloop_3);}</style><linearGradient id="Naamloos_verloop_2" x1="228.94" y1="407.13" x2="270.5" y2="365.58" gradientUnits="userSpaceOnUse"><stop offset="0" stop-color="#4951cf"/><stop offset="1" stop-color="#3ad7f0"/></linearGradient><linearGradient id="Naamloos_verloop_3" x1="124.67" y1="459.8" x2="369.83" y2="49.4" gradientUnits="userSpaceOnUse"><stop offset="0" stop-color="#6e27d4"/><stop offset="1" stop-color="#d01ce2"/></linearGradient></defs><title>Icon</title><circle class="cls-1" cx="250" cy="386.07" r="28.18"/><path class="cls-2" d="M343.18,456.84H156.82a30,30,0,0,1-30-30V73.16a30,30,0,0,1,30-30H343.18a30,30,0,0,1,30,30V426.84A30,30,0,0,1,343.18,456.84ZM156.82,63.16a10,10,0,0,0-10,10V426.84a10,10,0,0,0,10,10H343.18a10,10,0,0,0,10-10V73.16a10,10,0,0,0-10-10Z"/></svg>