<svg id="V2" xmlns="http://www.w3.org/2000/svg" xmlns:xlink="http://www.w3.org/1999/xlink" viewBox="0 0 500 500"><defs><style>.cls-1{fill:url(#Naamloos_verloop_3);}.cls-2{fill:url(#Naamloos_verloop_3-2);}.cls-3{fill:url(#Naamloos_verloop_3-3);}.cls-4{fill:url(#Naamloos_verloop_2);}</style><linearGradient id="Naamloos_verloop_3" x1="65.77" y1="460.14" x2="471.34" y2="226.69" gradientUnits="userSpaceOnUse"><stop offset="0" stop-color="#6e27d4"/><stop offset="1" stop-color="#d01ce2"/></linearGradient><linearGradient id="Naamloos_verloop_3-2" x1="32.29" y1="394.95" x2="437.92" y2="161.47" xlink:href="#Naamloos_verloop_3"/><linearGradient id="Naamloos_verloop_3-3" x1="0.62" y1="332.72" x2="405.93" y2="99.42" xlink:href="#Naamloos_verloop_3"/><linearGradient id="Naamloos_verloop_2" x1="43.49" y1="256.26" x2="362.65" y2="57.28" gradientUnits="userSpaceOnUse"><stop offset="0" stop-color="#4951cf"/><stop offset="1" stop-color="#3ad7f0"/></linearGradient></defs><title>Icon</title><path class="cls-1" d="M442.9,321c-5,0-9.1,4.48-9.1,10v39.79c-2.34,2-13.52,9.56-56.57,16C342.26,392.1,297.07,395,250,395s-92.26-2.9-127.23-8.17c-43-6.48-54.23-14-56.57-16V331c0-5.52-4.08-10-9.1-10S48,325.48,48,331v41.49h0c0,12.21,12.07,18.43,21.16,22.05,10.27,4.1,24.76,7.74,43.06,10.82C149.1,411.58,198,415,250,415s100.9-3.42,137.78-9.64c18.3-3.08,32.79-6.72,43.06-10.82,9.09-3.62,21.16-9.84,21.16-22.05h0V331C452,325.48,447.93,321,442.9,321Z"/><path class="cls-2" d="M442.9,236c-5,0-9.1,4.48-9.1,10v40.86c-2.34,2.06-13.52,9.57-56.57,16.05-35,5.26-80.16,8.16-127.23,8.16s-92.26-2.9-127.23-8.16c-43-6.48-54.23-14-56.57-16.05V246c0-5.52-4.08-10-9.1-10S48,240.48,48,246v42.56c0,12.21,12.07,18.44,21.16,22.06,10.27,4.09,24.76,7.73,43.06,10.81,36.88,6.22,85.81,9.64,137.78,9.64s100.9-3.42,137.78-9.64c18.3-3.08,32.79-6.72,43.06-10.81C439.93,307,452,300.77,452,288.56V246C452,240.48,447.93,236,442.9,236Z"/><path class="cls-3" d="M452,169c0-5.52-4.07-10-9.1-10s-9.1,4.48-9.1,10v33.93c-2.34,2.06-13.52,9.57-56.57,16-35,5.27-80.16,8.17-127.23,8.17s-92.26-2.9-127.23-8.17c-43-6.48-54.23-14-56.57-16V169c0-5.52-4.08-10-9.1-10S48,163.48,48,169v35.63h0c0,12.22,12.07,18.44,21.16,22.06,10.27,4.09,24.76,7.73,43.06,10.82,36.88,6.21,85.81,9.64,137.78,9.64s100.9-3.43,137.78-9.64c18.3-3.09,32.79-6.73,43.06-10.82,9.09-3.62,21.16-9.84,21.16-22.06h0Z"/><path class="cls-4" d="M250,170c-52,0-100.9-3.42-137.78-9.63-18.3-3.09-32.79-6.73-43.06-10.82C60.07,146,48,139.73,48,127.51s12.07-18.43,21.16-22.05c10.27-4.1,24.76-7.74,43.06-10.82C149.1,88.42,198,85,250,85s100.9,3.42,137.78,9.64c18.3,3.08,32.79,6.72,43.06,10.82,9.09,3.62,21.16,9.84,21.16,22.05S439.93,146,430.84,149.57c-10.27,4.09-24.76,7.73-43.06,10.82C350.9,166.6,302,170,250,170ZM68.62,127.51c5.27,3.15,19.22,9.09,54.15,14.35S202.93,150,250,150s92.26-2.9,127.23-8.16,48.88-11.2,54.15-14.35c-5.27-3.15-19.22-9.09-54.15-14.34S297.07,105,250,105s-92.26,2.9-127.23,8.17S73.89,124.36,68.62,127.51Zm365.73,2.25h0Z"/></svg>