<svg id="V2" xmlns="http://www.w3.org/2000/svg" xmlns:xlink="http://www.w3.org/1999/xlink" viewBox="0 0 500 500"><defs><style>.cls-1{fill:url(#Naamloos_verloop_2);}.cls-2{fill:url(#Naamloos_verloop_2-2);}.cls-3{fill:url(#Naamloos_verloop_3);}</style><linearGradient id="Naamloos_verloop_2" x1="110.44" y1="278.38" x2="182.8" y2="211.42" gradientUnits="userSpaceOnUse"><stop offset="0" stop-color="#4951cf"/><stop offset="1" stop-color="#3ad7f0"/></linearGradient><linearGradient id="Naamloos_verloop_2-2" x1="319.05" y1="277.37" x2="390.33" y2="206.09" xlink:href="#Naamloos_verloop_2"/><linearGradient id="Naamloos_verloop_3" x1="67.89" y1="341.33" x2="431.85" y2="158.81" gradientUnits="userSpaceOnUse"><stop offset="0" stop-color="#6e27d4"/><stop offset="1" stop-color="#d01ce2"/></linearGradient></defs><title>Icon</title><circle class="cls-1" cx="147.58" cy="244" r="40"/><circle class="cls-2" cx="352.42" cy="244" r="40"/><path class="cls-3" d="M411.73,357.12H318.47a30,30,0,0,1-28.78-21.42,41.5,41.5,0,0,0-22.21-26,41.32,41.32,0,0,0-57.1,25.73,30,30,0,0,1-28.83,21.71H88.27a30,30,0,0,1-30-30V172.88a30,30,0,0,1,30-30H411.73a30,30,0,0,1,30,30V327.12A30,30,0,0,1,411.73,357.12ZM249.84,285.7a61.64,61.64,0,0,1,59.07,44.48,9.86,9.86,0,0,0,9.56,6.94h93.26a10,10,0,0,0,10-10V172.88a10,10,0,0,0-10-10H88.27a10,10,0,0,0-10,10V327.12a10,10,0,0,0,10,10h93.28a10.09,10.09,0,0,0,9.65-7.38,61.51,61.51,0,0,1,58.64-44Z"/></svg>