<svg id="V2" xmlns="http://www.w3.org/2000/svg" xmlns:xlink="http://www.w3.org/1999/xlink" viewBox="0 0 500 500"><defs><style>.cls-1{fill:url(#Naamloos_verloop_2);}.cls-2{fill:url(#Naamloos_verloop_3);}.cls-3{fill:url(#Naamloos_verloop_3-2);}.cls-4{fill:url(#Naamloos_verloop_3-3);}</style><linearGradient id="Naamloos_verloop_2" x1="118.64" y1="381.36" x2="161.95" y2="338.05" gradientUnits="userSpaceOnUse"><stop offset="0" stop-color="#4951cf"/><stop offset="1" stop-color="#3ad7f0"/></linearGradient><linearGradient id="Naamloos_verloop_3" x1="193.75" y1="306.22" x2="330.55" y2="165.1" gradientUnits="userSpaceOnUse"><stop offset="0" stop-color="#6e27d4"/><stop offset="1" stop-color="#d01ce2"/></linearGradient><linearGradient id="Naamloos_verloop_3-2" x1="194.27" y1="306.72" x2="331.07" y2="165.6" xlink:href="#Naamloos_verloop_3"/><linearGradient id="Naamloos_verloop_3-3" x1="194.8" y1="307.25" x2="331.6" y2="166.13" xlink:href="#Naamloos_verloop_3"/></defs><title>Icon</title><circle class="cls-1" cx="140.59" cy="359.41" r="29.37"/><path class="cls-2" d="M245,369.41a10,10,0,0,1-10-10,94.47,94.47,0,0,0-94.36-94.36,10,10,0,1,1,0-20A114.49,114.49,0,0,1,255,359.41,10,10,0,0,1,245,369.41Z"/><path class="cls-3" d="M310.7,369.41a10,10,0,0,1-10-10c0-88.28-71.83-160.11-160.11-160.11a10,10,0,1,1,0-20c99.31,0,180.11,80.8,180.11,180.11A10,10,0,0,1,310.7,369.41Z"/><path class="cls-4" d="M378.79,369.41a10,10,0,0,1-10-10c0-125.83-102.37-228.2-228.2-228.2a10,10,0,1,1,0-20,248.21,248.21,0,0,1,248.2,248.2A10,10,0,0,1,378.79,369.41Z"/></svg>