<svg id="V2" xmlns="http://www.w3.org/2000/svg" xmlns:xlink="http://www.w3.org/1999/xlink" viewBox="0 0 500 500"><defs><style>.cls-1{fill:url(#Naamloos_verloop_3);}.cls-2{fill:url(#Naamloos_verloop_18);}</style><linearGradient id="Naamloos_verloop_3" x1="79.95" y1="411.34" x2="428.43" y2="150.7" gradientUnits="userSpaceOnUse"><stop offset="0" stop-color="#6e27d4"/><stop offset="1" stop-color="#d01ce2"/></linearGradient><radialGradient id="Naamloos_verloop_18" cx="131.34" cy="390.04" r="313.16" gradientTransform="matrix(-0.45, -0.89, 0.46, -0.23, 12.65, 596.73)" gradientUnits="userSpaceOnUse"><stop offset="0" stop-color="#4951cf" stop-opacity="0"/><stop offset="0.5" stop-color="#4951cf"/><stop offset="1" stop-color="#3ad7f0"/></radialGradient></defs><title>Icon</title><path class="cls-1" d="M317.3,400.64H137.17A105.11,105.11,0,1,1,176,197.83a152,152,0,0,1,49.72-67.4A149.2,149.2,0,0,1,317.3,99.36c83.06,0,150.64,67.58,150.64,150.64S400.36,400.64,317.3,400.64ZM137.17,210.42a85.11,85.11,0,0,0,0,170.22H317.3c72,0,130.64-58.61,130.64-130.64S389.33,119.36,317.3,119.36a131.11,131.11,0,0,0-125.71,95,10,10,0,0,1-14.34,6.09A85.25,85.25,0,0,0,137.17,210.42Z"/><path class="cls-2" d="M137.17,400.64A105.11,105.11,0,1,1,242.28,295.53a10,10,0,0,1-20,0,85.11,85.11,0,1,0-85.11,85.11,10,10,0,0,1,0,20Z"/></svg>