<svg id="V2" xmlns="http://www.w3.org/2000/svg" xmlns:xlink="http://www.w3.org/1999/xlink" viewBox="0 0 500 500"><defs><style>.cls-1{fill:url(#Naamloos_verloop_2);}.cls-2{fill:url(#Naamloos_verloop_3);}</style><linearGradient id="Naamloos_verloop_2" x1="179.09" y1="325.08" x2="325.97" y2="169.56" gradientUnits="userSpaceOnUse"><stop offset="0" stop-color="#4951cf"/><stop offset="1" stop-color="#3ad7f0"/></linearGradient><linearGradient id="Naamloos_verloop_3" x1="98.03" y1="406.92" x2="407.63" y2="87.24" gradientUnits="userSpaceOnUse"><stop offset="0" stop-color="#6e27d4"/><stop offset="1" stop-color="#d01ce2"/></linearGradient></defs><title>Icon</title><path class="cls-1" d="M295.44,325.44H204.56a30,30,0,0,1-30-30V204.56a30,30,0,0,1,30-30h90.88a30,30,0,0,1,30,30v90.88A30,30,0,0,1,295.44,325.44ZM204.56,194.56a10,10,0,0,0-10,10v90.88a10,10,0,0,0,10,10h90.88a10,10,0,0,0,10-10V204.56a10,10,0,0,0-10-10Z"/><path class="cls-2" d="M415,230.84a10,10,0,0,0,0-20H374V172.52h41a10,10,0,0,0,0-20H373.84a30.06,30.06,0,0,0-26.36-26.36V85a10,10,0,0,0-20,0v41H289.16V85a10,10,0,0,0-20,0v41H230.84V85a10,10,0,0,0-20,0v41H172.52V85a10,10,0,0,0-20,0v41.16a30.06,30.06,0,0,0-26.36,26.36H85a10,10,0,0,0,0,20h41v38.32H85a10,10,0,0,0,0,20h41v38.32H85a10,10,0,0,0,0,20h41v38.32H85a10,10,0,0,0,0,20h41.16a30.06,30.06,0,0,0,26.36,26.36V415a10,10,0,0,0,20,0V374h38.32v41a10,10,0,0,0,20,0V374h38.32v41a10,10,0,0,0,20,0V374h38.32v41a10,10,0,0,0,20,0V373.84a30.06,30.06,0,0,0,26.36-26.36H415a10,10,0,0,0,0-20H374V289.16h41a10,10,0,0,0,0-20H374V230.84ZM354,344a10,10,0,0,1-10,10H156a10,10,0,0,1-10-10V156a10,10,0,0,1,10-10H344a10,10,0,0,1,10,10Z"/></svg>