<svg id="V2" xmlns="http://www.w3.org/2000/svg" xmlns:xlink="http://www.w3.org/1999/xlink" viewBox="0 0 500 500"><defs><style>.cls-1{fill:url(#Naamloos_verloop_3);}.cls-2{fill:url(#Naamloos_verloop_2);}</style><linearGradient id="Naamloos_verloop_3" x1="97.67" y1="402.33" x2="402.51" y2="97.49" gradientUnits="userSpaceOnUse"><stop offset="0" stop-color="#6e27d4"/><stop offset="1" stop-color="#d01ce2"/></linearGradient><linearGradient id="Naamloos_verloop_2" x1="167.87" y1="332.13" x2="327.95" y2="172.05" gradientUnits="userSpaceOnUse"><stop offset="0" stop-color="#4951cf"/><stop offset="1" stop-color="#3ad7f0"/></linearGradient></defs><title>Icon</title><path class="cls-1" d="M264.56,455.71H235.44A32.53,32.53,0,0,1,203,423.22a12.4,12.4,0,0,0-8.31-11.77,171,171,0,0,1-19.6-8.12,12.42,12.42,0,0,0-14.25,2.42,32.5,32.5,0,0,1-46,0L94.25,385.17a32.5,32.5,0,0,1-.09-45.87l.09-.09A12.42,12.42,0,0,0,96.67,325a169.91,169.91,0,0,1-8.12-19.6,12.4,12.4,0,0,0-11.77-8.31,32.53,32.53,0,0,1-32.49-32.49V235.44A32.53,32.53,0,0,1,76.78,203a12.4,12.4,0,0,0,11.77-8.31A169.91,169.91,0,0,1,96.67,175a12.42,12.42,0,0,0-2.42-14.25,32.5,32.5,0,0,1,0-46l20.58-20.58a32.5,32.5,0,0,1,46,0A12.41,12.41,0,0,0,175,96.67a171,171,0,0,1,19.6-8.12A12.4,12.4,0,0,0,203,76.78a32.53,32.53,0,0,1,32.49-32.49h29.12a32.53,32.53,0,0,1,32.49,32.49,12.4,12.4,0,0,0,8.31,11.77A171,171,0,0,1,325,96.67a12.42,12.42,0,0,0,14.25-2.42,32.5,32.5,0,0,1,46,0l20.58,20.58a32.5,32.5,0,0,1,0,46A12.42,12.42,0,0,0,403.33,175a169.91,169.91,0,0,1,8.12,19.6A12.41,12.41,0,0,0,423.22,203a32.53,32.53,0,0,1,32.49,32.49v29.12a32.53,32.53,0,0,1-32.49,32.49,12.41,12.41,0,0,0-11.77,8.31,169.91,169.91,0,0,1-8.12,19.6,12.42,12.42,0,0,0,2.42,14.25,32.5,32.5,0,0,1,0,46l-20.58,20.58a32.5,32.5,0,0,1-46,0A12.42,12.42,0,0,0,325,403.33a171,171,0,0,1-19.6,8.12,12.4,12.4,0,0,0-8.31,11.77A32.53,32.53,0,0,1,264.56,455.71Zm-94.92-73.63a32.2,32.2,0,0,1,14.2,3.29,149.08,149.08,0,0,0,17.29,7.16A32.4,32.4,0,0,1,223,423.22a12.5,12.5,0,0,0,12.49,12.49h29.12a12.5,12.5,0,0,0,12.49-12.49,32.4,32.4,0,0,1,21.82-30.69,149.08,149.08,0,0,0,17.29-7.16,32.44,32.44,0,0,1,37.19,6.23,12.48,12.48,0,0,0,17.67,0L391.61,371a12.48,12.48,0,0,0,0-17.66,32.44,32.44,0,0,1-6.24-37.2,149.36,149.36,0,0,0,7.16-17.28,32.4,32.4,0,0,1,30.69-21.83,12.5,12.5,0,0,0,12.49-12.49V235.44A12.5,12.5,0,0,0,423.22,223a32.4,32.4,0,0,1-30.69-21.83,149.36,149.36,0,0,0-7.16-17.28,32.44,32.44,0,0,1,6.23-37.19,12.48,12.48,0,0,0,0-17.67L371,108.39a12.48,12.48,0,0,0-17.66,0,32.44,32.44,0,0,1-37.2,6.24,149.08,149.08,0,0,0-17.29-7.16,32.4,32.4,0,0,1-21.82-30.69,12.5,12.5,0,0,0-12.49-12.49H235.44A12.5,12.5,0,0,0,223,76.78a32.4,32.4,0,0,1-21.82,30.69,149.08,149.08,0,0,0-17.29,7.16,32.44,32.44,0,0,1-37.19-6.23,12.48,12.48,0,0,0-17.67,0L108.39,129a12.49,12.49,0,0,0,0,17.67,32.42,32.42,0,0,1,6.24,37.19,149.36,149.36,0,0,0-7.16,17.28A32.4,32.4,0,0,1,76.78,223a12.5,12.5,0,0,0-12.49,12.49v29.12a12.5,12.5,0,0,0,12.49,12.49,32.4,32.4,0,0,1,30.69,21.83,149.36,149.36,0,0,0,7.16,17.28,32.42,32.42,0,0,1-6.15,37.1l-.09.1a12.48,12.48,0,0,0,0,17.66L129,391.61a12.48,12.48,0,0,0,17.66,0A32.5,32.5,0,0,1,169.64,382.08Z"/><path class="cls-2" d="M250,360.59A110.59,110.59,0,1,1,360.59,250,110.71,110.71,0,0,1,250,360.59Zm0-201.18A90.59,90.59,0,1,0,340.59,250,90.69,90.69,0,0,0,250,159.41Z"/></svg>