<svg id="V2" xmlns="http://www.w3.org/2000/svg" xmlns:xlink="http://www.w3.org/1999/xlink" viewBox="0 0 500 500"><defs><style>.cls-1{fill:url(#Naamloos_verloop_3);}.cls-2{fill:url(#Naamloos_verloop_3-2);}.cls-3{fill:url(#Naamloos_verloop_3-3);}.cls-4{fill:url(#Naamloos_verloop_3-4);}.cls-5{fill:url(#Naamloos_verloop_2);}</style><linearGradient id="Naamloos_verloop_3" x1="18.16" y1="377.29" x2="383.92" y2="92.17" gradientTransform="translate(183.17 -60.39) rotate(36.39)" gradientUnits="userSpaceOnUse"><stop offset="0" stop-color="#6e27d4"/><stop offset="1" stop-color="#d01ce2"/></linearGradient><linearGradient id="Naamloos_verloop_3-2" x1="68.47" y1="441.82" x2="434.23" y2="156.7" gradientTransform="translate(292.53 -153.24) rotate(48.45)" xlink:href="#Naamloos_verloop_3"/><linearGradient id="Naamloos_verloop_3-3" x1="62.55" y1="449.68" x2="435.99" y2="158.57" gradientTransform="matrix(1, 0, 0, 1, 0, 0)" xlink:href="#Naamloos_verloop_3"/><linearGradient id="Naamloos_verloop_3-4" x1="94.17" y1="474.79" x2="459.93" y2="189.67" gradientTransform="matrix(1, 0, 0, 1, 0, 0)" xlink:href="#Naamloos_verloop_3"/><linearGradient id="Naamloos_verloop_2" x1="226.44" y1="104.89" x2="274.16" y2="57.18" gradientUnits="userSpaceOnUse"><stop offset="0" stop-color="#4951cf"/><stop offset="1" stop-color="#3ad7f0"/></linearGradient></defs><title>Icon</title><circle class="cls-1" cx="183.45" cy="248.44" r="35.09" transform="translate(-111.62 157.29) rotate(-36.39)"/><circle class="cls-2" cx="316.55" cy="248.44" r="35.09" transform="translate(-79.33 320.57) rotate(-48.45)"/><path class="cls-3" d="M402.7,153.35H260V105.2a10,10,0,1,0-20,0v48.15H97.3a30,30,0,0,0-30,30V423.77a30,30,0,0,0,30,30H402.7a30,30,0,0,0,30-30V183.35A30,30,0,0,0,402.7,153.35Zm10,270.42a10,10,0,0,1-10,10H97.3a10,10,0,0,1-10-10V183.35a10,10,0,0,1,10-10H402.7a10,10,0,0,1,10,10Z"/><path class="cls-4" d="M353.59,307.58H146.41a30,30,0,0,0-30,30V369a30,30,0,0,0,30,30H353.59a30,30,0,0,0,30-30V337.58A30,30,0,0,0,353.59,307.58Zm-119.22,20h31.26V379H234.37Zm-20,51.46H183.12V327.58h31.25Zm71.26-51.46h31.25V379H285.63ZM136.41,369V337.58a10,10,0,0,1,10-10h16.71V379H146.41A10,10,0,0,1,136.41,369Zm227.18,0a10,10,0,0,1-10,10H336.88V327.58h16.71a10,10,0,0,1,10,10Z"/><circle class="cls-5" cx="250" cy="81.33" r="35.09"/></svg>