<svg id="V2" xmlns="http://www.w3.org/2000/svg" xmlns:xlink="http://www.w3.org/1999/xlink" viewBox="0 0 500 500"><defs><style>.cls-1{fill:url(#Naamloos_verloop_3);}.cls-2{fill:url(#Naamloos_verloop_2);}</style><linearGradient id="Naamloos_verloop_3" x1="93.24" y1="445.39" x2="430.61" y2="130.66" gradientUnits="userSpaceOnUse"><stop offset="0" stop-color="#6e27d4"/><stop offset="1" stop-color="#d01ce2"/></linearGradient><linearGradient id="Naamloos_verloop_2" x1="220.42" y1="371.02" x2="283.06" y2="282.46" gradientUnits="userSpaceOnUse"><stop offset="0" stop-color="#4951cf"/><stop offset="1" stop-color="#3ad7f0"/></linearGradient></defs><title>Icon</title><path class="cls-1" d="M384,196.21H352.88V164.36a102.88,102.88,0,0,0-205.76,0v31.85H116a30,30,0,0,0-30,30V408.52a30,30,0,0,0,30,30H384a30,30,0,0,0,30-30V226.21A30,30,0,0,0,384,196.21ZM167.12,164.36a82.88,82.88,0,0,1,165.76,0v31.85H167.12ZM394,408.52a10,10,0,0,1-10,10H116a10,10,0,0,1-10-10V226.21a10,10,0,0,1,10-10H384a10,10,0,0,1,10,10Z"/><path class="cls-2" d="M267.2,319.78a28.26,28.26,0,1,0-34.4,0l-14,38.71a10,10,0,0,0,9.41,13.4h43.52a10,10,0,0,0,9.41-13.4Z"/></svg>