<svg id="V2" xmlns="http://www.w3.org/2000/svg" xmlns:xlink="http://www.w3.org/1999/xlink" viewBox="0 0 500 500"><defs><style>.cls-1{fill:url(#Naamloos_verloop_3);}.cls-2{fill:url(#Naamloos_verloop_3-2);}.cls-3{fill:url(#Naamloos_verloop_3-3);}.cls-4{fill:url(#Naamloos_verloop_3-4);}.cls-5{fill:url(#Naamloos_verloop_3-5);}.cls-6{fill:url(#Naamloos_verloop_3-6);}.cls-7{fill:url(#Naamloos_verloop_2);}</style><linearGradient id="Naamloos_verloop_3" x1="170.45" y1="520.45" x2="449.04" y2="159.07" gradientUnits="userSpaceOnUse"><stop offset="0" stop-color="#6e27d4"/><stop offset="1" stop-color="#d01ce2"/></linearGradient><linearGradient id="Naamloos_verloop_3-2" x1="10.3" y1="396.98" x2="288.89" y2="35.6" xlink:href="#Naamloos_verloop_3"/><linearGradient id="Naamloos_verloop_3-3" x1="37.05" y1="417.6" x2="315.64" y2="56.23" xlink:href="#Naamloos_verloop_3"/><linearGradient id="Naamloos_verloop_3-4" x1="143.7" y1="499.82" x2="422.29" y2="138.44" xlink:href="#Naamloos_verloop_3"/><linearGradient id="Naamloos_verloop_3-5" x1="-26.76" y1="368.41" x2="251.83" y2="7.03" xlink:href="#Naamloos_verloop_3"/><linearGradient id="Naamloos_verloop_3-6" x1="221.97" y1="560.16" x2="500.56" y2="198.78" xlink:href="#Naamloos_verloop_3"/><linearGradient id="Naamloos_verloop_2" x1="181.11" y1="346.47" x2="325.35" y2="163.59" gradientUnits="userSpaceOnUse"><stop offset="0" stop-color="#4951cf"/><stop offset="1" stop-color="#3ad7f0"/></linearGradient></defs><title>Icon</title><path class="cls-1" d="M254.56,440.41V354a4.56,4.56,0,0,0-9.12,0v86.38a18.25,18.25,0,1,0,9.12,0Z"/><path class="cls-2" d="M250,23.68a36.5,36.5,0,0,0-4.56,72.71v67.83a4.56,4.56,0,1,0,9.12,0V96.39A36.5,36.5,0,0,0,250,23.68Z"/><path class="cls-3" d="M165.53,302.63l-58.74,33.91a36.51,36.51,0,1,0,4.56,7.9l58.74-33.91a4.56,4.56,0,0,0-4.56-7.9Z"/><path class="cls-4" d="M332.2,216.24a4.46,4.46,0,0,0,2.27-.62l74.81-43.19a18.25,18.25,0,1,0-4.56-7.9l-74.81,43.19a4.57,4.57,0,0,0,2.29,8.52Z"/><path class="cls-5" d="M170.09,207.72,95.28,164.53a18.25,18.25,0,1,0-4.56,7.9l74.81,43.19a4.46,4.46,0,0,0,2.27.62,4.57,4.57,0,0,0,2.29-8.52Z"/><path class="cls-6" d="M440.54,327a36.51,36.51,0,0,0-47.33,9.56l-58.74-33.91a4.56,4.56,0,1,0-4.56,7.9l58.74,33.91A36.5,36.5,0,1,0,440.54,327Z"/><path class="cls-7" d="M250,363.16a104,104,0,1,1,104-104A104.15,104.15,0,0,1,250,363.16Zm0-189.82a85.79,85.79,0,1,0,85.78,85.79A85.88,85.88,0,0,0,250,173.34Z"/></svg>