<svg id="V2" xmlns="http://www.w3.org/2000/svg" xmlns:xlink="http://www.w3.org/1999/xlink" viewBox="0 0 500 500"><defs><style>.cls-1{fill:url(#Naamloos_verloop_3);}.cls-2{fill:url(#Naamloos_verloop_2);}</style><linearGradient id="Naamloos_verloop_3" x1="87.92" y1="402.81" x2="408.98" y2="100.17" gradientUnits="userSpaceOnUse"><stop offset="0" stop-color="#6e27d4"/><stop offset="1" stop-color="#d01ce2"/></linearGradient><linearGradient id="Naamloos_verloop_2" x1="92.53" y1="408.24" x2="327.25" y2="172.08" gradientUnits="userSpaceOnUse"><stop offset="0" stop-color="#4951cf"/><stop offset="1" stop-color="#3ad7f0"/></linearGradient></defs><title>Icon</title><path class="cls-1" d="M380.87,89.13H182a29.92,29.92,0,0,0-22.71,10.43L97.74,161l14.13,14.15,40.16-40V318a29.79,29.79,0,0,0,3.14,13.35l-57,57,14.14,14.15,57.27-57.27A29.86,29.86,0,0,0,182,348H364.52l-39.44,40L339.28,402l58.85-59.54A30,30,0,0,0,410.87,318V119.13A30,30,0,0,0,380.87,89.13Zm0,238.84H182a10,10,0,0,1-10-10V119.13a9.94,9.94,0,0,1,2.05-6l1.91-1.9a9.93,9.93,0,0,1,6-2.05H379.24l-53.11,53.11,14.14,14.14,50.6-50.6V318a9.93,9.93,0,0,1-1.1,4.55l-4.28,4.32A10,10,0,0,1,380.87,328Z"/><path class="cls-2" d="M318,410.87H119.13a30,30,0,0,1-30-30V182a30,30,0,0,1,30-30H318a30,30,0,0,1,30,30V380.87A30,30,0,0,1,318,410.87ZM119.13,172a10,10,0,0,0-10,10V380.87a10,10,0,0,0,10,10H318a10,10,0,0,0,10-10V182a10,10,0,0,0-10-10Z"/></svg>