<svg id="V2" xmlns="http://www.w3.org/2000/svg" xmlns:xlink="http://www.w3.org/1999/xlink" viewBox="0 0 500 500"><defs><style>.cls-1{fill:url(#Naamloos_verloop_3);}.cls-2{fill:url(#Naamloos_verloop_3-2);}.cls-3{fill:url(#Naamloos_verloop_3-3);}.cls-4{fill:url(#Naamloos_verloop_3-4);}.cls-5{fill:url(#Naamloos_verloop_3-5);}.cls-6{fill:url(#Naamloos_verloop_3-6);}.cls-7{fill:url(#Naamloos_verloop_3-7);}.cls-8{fill:url(#Naamloos_verloop_2);}</style><linearGradient id="Naamloos_verloop_3" x1="438.8" y1="250" x2="458.8" y2="250" gradientUnits="userSpaceOnUse"><stop offset="0" stop-color="#6e27d4"/><stop offset="1" stop-color="#d01ce2"/></linearGradient><linearGradient id="Naamloos_verloop_3-2" x1="65.43" y1="295.01" x2="434.53" y2="295.01" xlink:href="#Naamloos_verloop_3"/><linearGradient id="Naamloos_verloop_3-3" x1="41.2" y1="250" x2="61.2" y2="250" xlink:href="#Naamloos_verloop_3"/><linearGradient id="Naamloos_verloop_3-4" x1="240" y1="51.2" x2="260" y2="51.2" xlink:href="#Naamloos_verloop_3"/><linearGradient id="Naamloos_verloop_3-5" x1="269.24" y1="250.02" x2="320.77" y2="250.02" xlink:href="#Naamloos_verloop_3"/><linearGradient id="Naamloos_verloop_3-6" x1="240" y1="448.8" x2="260" y2="448.8" xlink:href="#Naamloos_verloop_3"/><linearGradient id="Naamloos_verloop_3-7" x1="142.67" y1="352.72" x2="338.69" y2="156.7" xlink:href="#Naamloos_verloop_3"/><linearGradient id="Naamloos_verloop_2" x1="112.03" y1="387.96" x2="389.26" y2="110.73" gradientUnits="userSpaceOnUse"><stop offset="0" stop-color="#4951cf"/><stop offset="1" stop-color="#3ad7f0"/></linearGradient></defs><title>Icon</title><path class="cls-1" d="M448.8,260a9.85,9.85,0,0,1-1.95-.2,10.44,10.44,0,0,1-1.88-.57,10.15,10.15,0,0,1-1.72-.92,9.57,9.57,0,0,1-1.52-1.24A10.09,10.09,0,0,1,438.8,250a10,10,0,0,1,.2-2,10.3,10.3,0,0,1,.56-1.87,10.63,10.63,0,0,1,.92-1.73,10.75,10.75,0,0,1,1.25-1.52,9.57,9.57,0,0,1,1.52-1.24,10.15,10.15,0,0,1,1.72-.92,10.44,10.44,0,0,1,1.88-.57,9.94,9.94,0,0,1,10.26,4.25,10.63,10.63,0,0,1,.92,1.73,10.37,10.37,0,0,1,.58,1.87,10.84,10.84,0,0,1,.19,2,10.65,10.65,0,0,1-.19,1.95,10.13,10.13,0,0,1-.58,1.87,10.24,10.24,0,0,1-.92,1.73,9.72,9.72,0,0,1-2.76,2.76,9.87,9.87,0,0,1-1.73.92,10.1,10.1,0,0,1-1.87.57A9.85,9.85,0,0,1,448.8,260Z"/><path class="cls-2" d="M259.87,311.07a10,10,0,0,1,9.69-10.3h0a10,10,0,0,1,10.3,9.69h0a10,10,0,0,1-9.69,10.3h-.31A10,10,0,0,1,259.87,311.07Zm-30.07,9.69h0a10,10,0,0,1-9.69-10.3h0a10,10,0,0,1,10.3-9.69h0a10,10,0,0,1,9.69,10.3h0a10,10,0,0,1-10,9.69h-.31Zm69.8-11.52a10,10,0,0,1,9-10.91h0a10,10,0,0,1,10.91,9h0a10,10,0,0,1-9,10.92h0c-.33,0-.65,0-1,0h0A10,10,0,0,1,299.6,309.24Zm-110.15,9h0a10,10,0,0,1-9-10.91h0a10,10,0,0,1,10.91-9h0a10,10,0,0,1,9,10.92h0a10,10,0,0,1-9.94,9h0C190.1,318.28,189.78,318.26,189.45,318.23Zm149.66-13.52a10,10,0,0,1,8.11-11.58h0a10,10,0,0,1,11.59,8.11h0a10,10,0,0,1-8.11,11.58h0A9.42,9.42,0,0,1,349,313h0A10,10,0,0,1,339.11,304.71Zm-189.85,8.11a10,10,0,0,1-8.11-11.59h0a10,10,0,0,1,11.59-8.11h0a10,10,0,0,1,8.11,11.59h0A10,10,0,0,1,151,313h0A10.52,10.52,0,0,1,149.26,312.82Zm228.85-15.94a10,10,0,0,1,6.76-12.42h0a10,10,0,0,1,12.42,6.75h0a10,10,0,0,1-6.76,12.42h0a10,10,0,0,1-2.84.42h0A10,10,0,0,1,378.11,296.88Zm-268.68,6.74a10,10,0,0,1-6.76-12.42h0a10,10,0,0,1,12.43-6.76h0a10,10,0,0,1,6.76,12.43h0a10,10,0,0,1-9.58,7.17h0A10,10,0,0,1,109.43,303.62Zm306.38-19.46a10,10,0,0,1,3.83-13.62h0a10,10,0,0,1,13.61,3.82h0A10,10,0,0,1,429.43,288h0a10,10,0,0,1-4.89,1.28h0A10,10,0,0,1,415.81,284.16ZM70.53,288a10,10,0,0,1-3.82-13.62h0a10,10,0,0,1,13.62-3.82h0a10,10,0,0,1,3.82,13.62h0a10,10,0,0,1-8.73,5.1h0A10,10,0,0,1,70.53,288Z"/><path class="cls-3" d="M51.2,260a9.85,9.85,0,0,1-2-.2,10.44,10.44,0,0,1-1.88-.57,10.15,10.15,0,0,1-1.72-.92,9.57,9.57,0,0,1-1.52-1.24,10,10,0,0,1-1.24-1.52,10.24,10.24,0,0,1-.92-1.73A9.39,9.39,0,0,1,41.4,252a9.85,9.85,0,0,1-.2-1.95,10,10,0,0,1,.2-2,10,10,0,0,1,1.49-3.59,9.93,9.93,0,0,1,2.76-2.77,10.15,10.15,0,0,1,1.72-.92,10.44,10.44,0,0,1,1.88-.57,9.85,9.85,0,0,1,3.9,0,10.1,10.1,0,0,1,1.87.57,9.87,9.87,0,0,1,1.73.92,9.93,9.93,0,0,1,2.76,2.77,10.15,10.15,0,0,1,.92,1.72A9.39,9.39,0,0,1,61,248a10,10,0,0,1,.2,2A9.85,9.85,0,0,1,61,252a9.39,9.39,0,0,1-.57,1.87,10.24,10.24,0,0,1-.92,1.73,10,10,0,0,1-1.24,1.52,9.57,9.57,0,0,1-1.52,1.24,9.87,9.87,0,0,1-1.73.92,10.1,10.1,0,0,1-1.87.57A9.85,9.85,0,0,1,51.2,260Z"/><path class="cls-4" d="M250,61.2a9.85,9.85,0,0,1-1.95-.2,10.1,10.1,0,0,1-1.87-.57,9.87,9.87,0,0,1-1.73-.92,9.57,9.57,0,0,1-1.52-1.24,10,10,0,0,1-2.74-9,10.37,10.37,0,0,1,.58-1.87,9.44,9.44,0,0,1,.91-1.72,10.84,10.84,0,0,1,1.25-1.53,10.15,10.15,0,0,1,1.52-1.24,9.87,9.87,0,0,1,1.73-.92,9.91,9.91,0,0,1,12.13,3.69,9.48,9.48,0,0,1,.92,1.72,10.62,10.62,0,0,1,.58,1.87,10,10,0,0,1-2.74,9,9.57,9.57,0,0,1-1.52,1.24,9.87,9.87,0,0,1-1.73.92A10.1,10.1,0,0,1,252,61,9.85,9.85,0,0,1,250,61.2Z"/><path class="cls-5" d="M274.34,433.28a10,10,0,0,1-3.81-13.61h0a10,10,0,0,1,13.62-3.82h0A10,10,0,0,1,288,429.47h0a10,10,0,0,1-8.73,5.1h0A10,10,0,0,1,274.34,433.28Zm16.87-35.95a10,10,0,0,1-6.76-12.43h0a10,10,0,0,1,12.42-6.76h0a10,10,0,0,1,6.76,12.43h0a10,10,0,0,1-9.59,7.17h0A10.3,10.3,0,0,1,291.21,397.33Zm10-38.49a10,10,0,0,1-8.1-11.59h0a10,10,0,0,1,11.58-8.1h0a10,10,0,0,1,8.11,11.58h0A10,10,0,0,1,303,359h0A9.6,9.6,0,0,1,301.23,358.84Zm9.24-78.95a10,10,0,0,1-9.69-10.3h0a10,10,0,0,1,10.29-9.69h0a10,10,0,0,1,9.7,10.3h0a10,10,0,0,1-10,9.69h-.31Zm-9.69-49.46a10,10,0,0,1,9.69-10.3h0a10,10,0,0,1,10.3,9.69h0a10,10,0,0,1-9.7,10.3h-.3A10,10,0,0,1,300.78,230.43Zm-2.45-39a10,10,0,0,1,9-10.91h0a10,10,0,0,1,10.91,9h0a10,10,0,0,1-9,10.91h0a8,8,0,0,1-1,.05h0A10,10,0,0,1,298.33,191.4Zm-5.2-38.63h0a10,10,0,0,1,8.11-11.59h0a10,10,0,0,1,11.59,8.11h0a10,10,0,0,1-8.11,11.59h0A10.45,10.45,0,0,1,303,161h0A10,10,0,0,1,293.13,152.77Zm-8.67-37.64h0a10,10,0,0,1,6.76-12.43h0a10,10,0,0,1,12.42,6.77h0a10,10,0,0,1-6.76,12.42h0a10.37,10.37,0,0,1-2.84.41h0A10,10,0,0,1,284.46,115.13ZM270.55,80.36a10,10,0,0,1,3.82-13.62h0A10,10,0,0,1,288,70.57h0a10,10,0,0,1-3.82,13.61h0a10,10,0,0,1-4.89,1.28h0A10,10,0,0,1,270.55,80.36Z"/><path class="cls-6" d="M250,458.8a9.85,9.85,0,0,1-1.95-.2,10.1,10.1,0,0,1-1.87-.57,9.87,9.87,0,0,1-1.73-.92,9.57,9.57,0,0,1-1.52-1.24,10,10,0,0,1-1.24-1.52,9.91,9.91,0,0,1-.92-1.73,10.13,10.13,0,0,1-.58-1.87,9.84,9.84,0,0,1-.19-1.95,9.94,9.94,0,0,1,.19-2,10.37,10.37,0,0,1,.58-1.87,9.86,9.86,0,0,1,.91-1.73,10.75,10.75,0,0,1,1.25-1.52,9.57,9.57,0,0,1,1.52-1.24,9.87,9.87,0,0,1,1.73-.92,9.95,9.95,0,0,1,12.13,3.68,10.63,10.63,0,0,1,.92,1.73,10.37,10.37,0,0,1,.58,1.87,10,10,0,0,1,.19,2,9.84,9.84,0,0,1-.19,1.95,10.13,10.13,0,0,1-.58,1.87,9.91,9.91,0,0,1-.92,1.73,10,10,0,0,1-1.24,1.52,9.57,9.57,0,0,1-1.52,1.24,9.87,9.87,0,0,1-1.73.92,10.1,10.1,0,0,1-1.87.57A9.85,9.85,0,0,1,250,458.8Z"/><path class="cls-7" d="M448.8,260a10,10,0,0,1-10-10c0-8.26-13.4-22-51.16-33.63C351,205.12,302.13,198.92,250,198.92s-101,6.2-137.64,17.45C74.6,228,61.2,241.74,61.2,250a10,10,0,0,1-20,0c0-21.39,22.58-39.62,65.29-52.75C145,185.43,195.93,178.92,250,178.92s105,6.51,143.51,18.33c42.71,13.13,65.29,31.36,65.29,52.75A10,10,0,0,1,448.8,260Z"/><path class="cls-7" d="M250,458.8c-21.38,0-39.62-22.58-52.74-65.29C185.44,355,178.93,304.07,178.93,250s6.51-105,18.33-143.51C210.38,63.78,228.62,41.2,250,41.2a10,10,0,0,1,0,20c-8.26,0-22,13.4-33.63,51.16C205.12,149,198.93,197.86,198.93,250s6.19,101,17.44,137.63C228,425.4,241.74,438.8,250,438.8a10,10,0,0,1,0,20Z"/><path class="cls-8" d="M250,458.8C134.87,458.8,41.2,365.13,41.2,250S134.87,41.2,250,41.2,458.8,134.87,458.8,250,365.13,458.8,250,458.8Zm0-397.6C145.9,61.2,61.2,145.89,61.2,250S145.9,438.8,250,438.8,438.8,354.1,438.8,250,354.1,61.2,250,61.2Z"/></svg>