<?xml version="1.0" encoding="utf-8"?>
<!-- Generator: Adobe Illustrator 24.0.2, SVG Export Plug-In . SVG Version: 6.00 Build 0)  -->
<svg version="1.1" xmlns="http://www.w3.org/2000/svg" xmlns:xlink="http://www.w3.org/1999/xlink" x="0px" y="0px"
	 viewBox="0 0 695.51 600" style="enable-background:new 0 0 695.51 600;" xml:space="preserve">
<style type="text/css">
	.st0{fill:#050547;}
	.st1{display:none;}
	.st2{display:inline;opacity:0.1;}
	.st3{fill:none;stroke:#FFFFFF;stroke-width:0.5;stroke-miterlimit:10;}
	.st4{fill:#FFFFFF;}
	.st5{fill:none;stroke:#FFFFFF;stroke-width:0.25;stroke-miterlimit:10;}
	.st6{fill:url(#SVGID_1_);}
	.st7{fill:url(#Rectangle_66_14_);}
	.st8{fill:url(#SVGID_2_);}
	.st9{fill:url(#Rectangle_67_2_);}
	.st10{fill:url(#SVGID_3_);}
	.st11{fill:url(#Rectangle_66_15_);}
	.st12{fill:url(#SVGID_4_);}
	.st13{fill:url(#SVGID_5_);}
	.st14{fill:url(#SVGID_6_);}
	.st15{fill:url(#Rectangle_66_16_);}
	.st16{fill:url(#SVGID_7_);}
	.st17{fill:url(#SVGID_8_);}
	.st18{fill:url(#SVGID_9_);}
	.st19{fill:url(#Rectangle_66_17_);}
	.st20{fill:url(#SVGID_10_);}
	.st21{fill:url(#SVGID_11_);}
	.st22{opacity:0.09;fill:#050547;}
	.st23{fill:#3AD7F0;}
	.st24{fill:url(#SVGID_12_);}
	.st25{fill:url(#SVGID_13_);}
	.st26{fill:url(#SVGID_14_);}
	.st27{fill:url(#SVGID_15_);}
	.st28{fill:url(#SVGID_16_);}
	.st29{fill:url(#SVGID_17_);}
	.st30{fill:url(#SVGID_18_);}
	.st31{fill:url(#SVGID_19_);}
	.st32{fill:url(#SVGID_20_);}
	.st33{fill:url(#SVGID_21_);}
	.st34{fill:url(#SVGID_22_);}
	.st35{fill:url(#SVGID_23_);}
	.st36{fill:url(#SVGID_24_);}
	.st37{fill:url(#SVGID_25_);}
	.st38{fill:url(#SVGID_26_);}
	.st39{fill:url(#SVGID_27_);}
	.st40{fill:url(#SVGID_28_);}
	.st41{fill:url(#SVGID_29_);}
	.st42{fill:url(#SVGID_30_);}
	.st43{fill:url(#SVGID_31_);}
	.st44{fill:url(#SVGID_32_);}
	.st45{fill:url(#Rectangle_66_18_);}
	.st46{fill:url(#SVGID_33_);}
	.st47{fill:url(#Rectangle_67_6_);}
	.st48{fill:url(#SVGID_34_);}
	.st49{fill:url(#Rectangle_66_19_);}
	.st50{fill:url(#SVGID_35_);}
	.st51{fill:url(#SVGID_36_);}
	.st52{fill:url(#SVGID_37_);}
	.st53{fill:url(#Rectangle_66_20_);}
	.st54{fill:url(#SVGID_38_);}
	.st55{fill:url(#SVGID_39_);}
	.st56{fill:url(#SVGID_40_);}
	.st57{fill:url(#Rectangle_66_21_);}
	.st58{fill:url(#SVGID_41_);}
	.st59{fill:url(#SVGID_42_);}
	.st60{fill:url(#SVGID_43_);}
	.st61{fill:url(#SVGID_44_);}
	.st62{fill:url(#SVGID_45_);}
	.st63{fill:url(#SVGID_46_);}
	.st64{fill:url(#SVGID_47_);}
	.st65{fill:url(#SVGID_48_);}
	.st66{fill:url(#SVGID_49_);}
	.st67{fill:url(#SVGID_50_);}
	.st68{fill:url(#SVGID_51_);}
	.st69{fill:url(#SVGID_52_);}
	.st70{fill:url(#SVGID_53_);}
	.st71{fill:url(#SVGID_54_);}
	.st72{fill:url(#SVGID_55_);}
	.st73{fill:url(#SVGID_56_);}
	.st74{fill:url(#SVGID_57_);}
	.st75{fill:url(#SVGID_58_);}
	.st76{fill:url(#SVGID_59_);}
	.st77{fill:url(#SVGID_60_);}
	.st78{fill:url(#SVGID_61_);}
	.st79{fill:url(#SVGID_62_);}
	.st80{fill:url(#Rectangle_66_22_);}
	.st81{fill:url(#Rectangle_67_7_);}
	.st82{fill:url(#SVGID_63_);}
	.st83{fill:url(#SVGID_64_);}
	.st84{fill:url(#Rectangle_66_23_);}
	.st85{fill:url(#SVGID_65_);}
	.st86{fill:url(#Rectangle_67_8_);}
	.st87{fill:none;stroke:#291875;stroke-width:5;stroke-linecap:round;stroke-linejoin:round;stroke-miterlimit:10;}
	.st88{fill:none;stroke:#FFFFFF;stroke-width:5;stroke-linecap:round;stroke-linejoin:round;stroke-miterlimit:10;}
	.st89{fill:none;stroke:#4951CF;stroke-width:5;stroke-linecap:round;stroke-linejoin:round;stroke-miterlimit:10;}
	.st90{fill:none;stroke:#3AD7F0;stroke-width:5;stroke-linecap:round;stroke-linejoin:round;stroke-miterlimit:10;}
	.st91{fill:none;stroke:#6E27D4;stroke-width:5;stroke-linecap:round;stroke-linejoin:round;stroke-miterlimit:10;}
	.st92{fill:none;stroke:#D01CE2;stroke-width:5;stroke-linecap:round;stroke-linejoin:round;stroke-miterlimit:10;}
	.st93{fill:none;stroke:url(#SVGID_66_);stroke-width:5;stroke-linecap:round;stroke-linejoin:round;stroke-miterlimit:10;}
	.st94{fill:none;stroke:url(#SVGID_67_);stroke-width:5;stroke-linecap:round;stroke-linejoin:round;stroke-miterlimit:10;}
	.st95{fill:none;stroke:url(#SVGID_68_);stroke-width:5;stroke-linecap:round;stroke-linejoin:round;stroke-miterlimit:10;}
	.st96{fill:#291875;}
	.st97{fill:#4951CF;}
	.st98{fill:#6E27D4;}
	.st99{fill:#D01CE2;}
	.st100{fill:url(#Rectangle_84_2_);}
	.st101{fill:url(#Rectangle_87_2_);}
	.st102{fill:url(#Rectangle_88_2_);}
	.st103{fill:url(#SVGID_69_);}
	.st104{fill:url(#Rectangle_66_24_);}
	.st105{fill:url(#SVGID_70_);}
	.st106{fill:url(#SVGID_71_);}
	.st107{fill:url(#SVGID_72_);}
	.st108{fill:url(#Rectangle_66_25_);}
	.st109{fill:url(#SVGID_73_);}
	.st110{fill:url(#SVGID_74_);}
	.st111{fill:url(#SVGID_75_);}
	.st112{fill:url(#Rectangle_66_26_);}
	.st113{fill:url(#SVGID_76_);}
	.st114{fill:url(#SVGID_77_);}
</style>
<g id="BG">
</g>
<g id="Grid" class="st1">
	<g class="st2">
		<polygon class="st3" points="400,-899.6 1370.07,-339.48 400,220.64 -570.07,-339.48 		"/>
		<line class="st3" x1="-562.06" y1="-344.1" x2="408.02" y2="216.02"/>
		<line class="st3" x1="-554.04" y1="-348.73" x2="416.03" y2="211.39"/>
		<line class="st3" x1="-546.02" y1="-353.36" x2="424.05" y2="206.76"/>
		<line class="st3" x1="-538" y1="-357.99" x2="432.07" y2="202.13"/>
		<line class="st3" x1="-529.99" y1="-362.62" x2="440.09" y2="197.5"/>
		<line class="st3" x1="-521.97" y1="-367.25" x2="448.1" y2="192.87"/>
		<line class="st3" x1="-513.95" y1="-371.88" x2="456.12" y2="188.24"/>
		<line class="st3" x1="-505.94" y1="-376.51" x2="464.14" y2="183.61"/>
		<line class="st3" x1="-497.92" y1="-381.14" x2="472.15" y2="178.98"/>
		<line class="st3" x1="-489.9" y1="-385.77" x2="480.17" y2="174.35"/>
		<line class="st3" x1="-481.88" y1="-390.4" x2="488.19" y2="169.72"/>
		<line class="st3" x1="-473.87" y1="-395.02" x2="496.21" y2="165.1"/>
		<line class="st3" x1="-465.85" y1="-399.65" x2="504.22" y2="160.47"/>
		<line class="st3" x1="-457.83" y1="-404.28" x2="512.24" y2="155.84"/>
		<line class="st3" x1="-449.82" y1="-408.91" x2="520.26" y2="151.21"/>
		<line class="st3" x1="-441.8" y1="-413.54" x2="528.27" y2="146.58"/>
		<line class="st3" x1="-433.78" y1="-418.17" x2="536.29" y2="141.95"/>
		<line class="st3" x1="-425.76" y1="-422.8" x2="544.31" y2="137.32"/>
		<line class="st3" x1="-417.75" y1="-427.43" x2="552.33" y2="132.69"/>
		<line class="st3" x1="-409.73" y1="-432.06" x2="560.34" y2="128.06"/>
		<line class="st3" x1="-401.71" y1="-436.69" x2="568.36" y2="123.43"/>
		<line class="st3" x1="-393.7" y1="-441.32" x2="576.38" y2="118.8"/>
		<line class="st3" x1="-385.68" y1="-445.94" x2="584.39" y2="114.18"/>
		<line class="st3" x1="-377.66" y1="-450.57" x2="592.41" y2="109.55"/>
		<line class="st3" x1="-369.64" y1="-455.2" x2="600.43" y2="104.92"/>
		<line class="st3" x1="-361.63" y1="-459.83" x2="608.45" y2="100.29"/>
		<line class="st3" x1="-353.61" y1="-464.46" x2="616.46" y2="95.66"/>
		<line class="st3" x1="-345.59" y1="-469.09" x2="624.48" y2="91.03"/>
		<line class="st3" x1="-337.58" y1="-473.72" x2="632.5" y2="86.4"/>
		<line class="st3" x1="-329.56" y1="-478.35" x2="640.51" y2="81.77"/>
		<line class="st3" x1="-321.54" y1="-482.98" x2="648.53" y2="77.14"/>
		<line class="st3" x1="-313.52" y1="-487.61" x2="656.55" y2="72.51"/>
		<line class="st3" x1="-305.51" y1="-492.24" x2="664.57" y2="67.88"/>
		<line class="st3" x1="-297.49" y1="-496.86" x2="672.58" y2="63.26"/>
		<line class="st3" x1="-289.47" y1="-501.49" x2="680.6" y2="58.63"/>
		<line class="st3" x1="-281.46" y1="-506.12" x2="688.62" y2="54"/>
		<line class="st3" x1="-273.44" y1="-510.75" x2="696.63" y2="49.37"/>
		<line class="st3" x1="-265.42" y1="-515.38" x2="704.65" y2="44.74"/>
		<line class="st3" x1="-257.4" y1="-520.01" x2="712.67" y2="40.11"/>
		<line class="st3" x1="-249.39" y1="-524.64" x2="720.69" y2="35.48"/>
		<line class="st3" x1="-241.37" y1="-529.27" x2="728.7" y2="30.85"/>
		<line class="st3" x1="-233.35" y1="-533.9" x2="736.72" y2="26.22"/>
		<line class="st3" x1="-225.34" y1="-538.53" x2="744.74" y2="21.59"/>
		<line class="st3" x1="-217.32" y1="-543.16" x2="752.75" y2="16.96"/>
		<line class="st3" x1="-209.3" y1="-547.78" x2="760.77" y2="12.34"/>
		<line class="st3" x1="-201.28" y1="-552.41" x2="768.79" y2="7.71"/>
		<line class="st3" x1="-193.27" y1="-557.04" x2="776.81" y2="3.08"/>
		<line class="st3" x1="1362.06" y1="-344.1" x2="391.98" y2="216.02"/>
		<line class="st3" x1="1354.04" y1="-348.73" x2="383.97" y2="211.39"/>
		<line class="st3" x1="1346.02" y1="-353.36" x2="375.95" y2="206.76"/>
		<line class="st3" x1="1338" y1="-357.99" x2="367.93" y2="202.13"/>
		<line class="st3" x1="1329.99" y1="-362.62" x2="359.91" y2="197.5"/>
		<line class="st3" x1="1321.97" y1="-367.25" x2="351.9" y2="192.87"/>
		<line class="st3" x1="1313.95" y1="-371.88" x2="343.88" y2="188.24"/>
		<line class="st3" x1="1305.94" y1="-376.51" x2="335.86" y2="183.61"/>
		<line class="st3" x1="1297.92" y1="-381.14" x2="327.85" y2="178.98"/>
		<line class="st3" x1="1289.9" y1="-385.77" x2="319.83" y2="174.35"/>
		<line class="st3" x1="1281.88" y1="-390.4" x2="311.81" y2="169.72"/>
		<line class="st3" x1="1273.87" y1="-395.02" x2="303.79" y2="165.1"/>
		<line class="st3" x1="1265.85" y1="-399.65" x2="295.78" y2="160.47"/>
		<line class="st3" x1="1257.83" y1="-404.28" x2="287.76" y2="155.84"/>
		<line class="st3" x1="1249.82" y1="-408.91" x2="279.74" y2="151.21"/>
		<line class="st3" x1="1241.8" y1="-413.54" x2="271.73" y2="146.58"/>
		<line class="st3" x1="1233.78" y1="-418.17" x2="263.71" y2="141.95"/>
		<line class="st3" x1="1225.76" y1="-422.8" x2="255.69" y2="137.32"/>
		<line class="st3" x1="1217.75" y1="-427.43" x2="247.67" y2="132.69"/>
		<line class="st3" x1="1209.73" y1="-432.06" x2="239.66" y2="128.06"/>
		<line class="st3" x1="1201.71" y1="-436.69" x2="231.64" y2="123.43"/>
		<line class="st3" x1="1193.7" y1="-441.32" x2="223.62" y2="118.8"/>
		<line class="st3" x1="1185.68" y1="-445.94" x2="215.61" y2="114.18"/>
		<line class="st3" x1="1177.66" y1="-450.57" x2="207.59" y2="109.55"/>
		<line class="st3" x1="1169.64" y1="-455.2" x2="199.57" y2="104.92"/>
		<line class="st3" x1="1161.63" y1="-459.83" x2="191.55" y2="100.29"/>
		<line class="st3" x1="1153.61" y1="-464.46" x2="183.54" y2="95.66"/>
		<line class="st3" x1="1145.59" y1="-469.09" x2="175.52" y2="91.03"/>
		<line class="st3" x1="1137.58" y1="-473.72" x2="167.5" y2="86.4"/>
		<line class="st3" x1="1129.56" y1="-478.35" x2="159.49" y2="81.77"/>
		<line class="st3" x1="1121.54" y1="-482.98" x2="151.47" y2="77.14"/>
		<line class="st3" x1="1113.52" y1="-487.61" x2="143.45" y2="72.51"/>
		<line class="st3" x1="1105.51" y1="-492.24" x2="135.43" y2="67.88"/>
		<line class="st3" x1="1097.49" y1="-496.86" x2="127.42" y2="63.26"/>
		<line class="st3" x1="1089.47" y1="-501.49" x2="119.4" y2="58.63"/>
		<line class="st3" x1="1081.46" y1="-506.12" x2="111.38" y2="54"/>
		<line class="st3" x1="1073.44" y1="-510.75" x2="103.37" y2="49.37"/>
		<line class="st3" x1="1065.42" y1="-515.38" x2="95.35" y2="44.74"/>
		<line class="st3" x1="1057.4" y1="-520.01" x2="87.33" y2="40.11"/>
		<line class="st3" x1="1049.39" y1="-524.64" x2="79.31" y2="35.48"/>
		<line class="st3" x1="1041.37" y1="-529.27" x2="71.3" y2="30.85"/>
		<line class="st3" x1="1033.35" y1="-533.9" x2="63.28" y2="26.22"/>
		<line class="st3" x1="1025.34" y1="-538.53" x2="55.26" y2="21.59"/>
		<line class="st3" x1="1017.32" y1="-543.16" x2="47.25" y2="16.96"/>
		<line class="st3" x1="1009.3" y1="-547.78" x2="39.23" y2="12.34"/>
		<line class="st3" x1="1001.28" y1="-552.41" x2="31.21" y2="7.71"/>
		<line class="st3" x1="993.27" y1="-557.04" x2="23.19" y2="3.08"/>
	</g>
</g>
<g id="Network">
</g>
<g id="Objects">
</g>
<g id="Hires">
	<g>
		<path class="st4" d="M100.04,201.16l41.37,23.38l20.68,11.69l2.59,1.46c0.88,0.49,1.69,1,2.55,1.33c1.73,0.69,3.62,0.94,5.46,0.73
			c0.92-0.11,1.82-0.33,2.69-0.66c0.87-0.33,1.64-0.78,2.52-1.3l5.12-3.02l10.23-6.03c1.75-1.1,3.89-1.85,6.03-1.99
			c2.15-0.16,4.34,0.24,6.3,1.14c1.01,0.48,1.82,0.98,2.69,1.46l2.59,1.46l5.17,2.92l10.34,5.84l41.38,23.36
			c0.86,0.48,1.16,1.57,0.68,2.43c-0.48,0.86-1.57,1.16-2.43,0.68c-0.01,0-0.02-0.01-0.03-0.02l-40.92-24.15l-10.23-6.04l-5.12-3.02
			l-2.56-1.51c-0.85-0.49-1.72-1.05-2.5-1.42c-3.25-1.59-7.25-1.39-10.41,0.57l-10.34,5.84l-5.17,2.92
			c-0.83,0.48-1.79,1.02-2.78,1.37c-0.99,0.36-2.03,0.6-3.08,0.7c-2.1,0.21-4.24-0.12-6.17-0.93c-0.48-0.21-0.95-0.44-1.41-0.7
			l-1.28-0.75l-2.56-1.51l-20.46-12.07L100.04,201.16z"/>
		<path class="st4" d="M371.81,115.76l53.78,30.71l13.45,7.68l6.72,3.84l3.36,1.92c1.15,0.64,2.28,1.46,3.2,2.46
			c1.88,1.97,3.06,4.6,3.32,7.31c0.29,2.71-0.34,5.52-1.77,7.87c-0.7,1.18-1.63,2.22-2.69,3.1c-0.52,0.44-1.1,0.83-1.68,1.19
			l-1.67,0.98l-6.68,3.92l-106.8,62.73c-0.85,0.5-1.94,0.21-2.44-0.63c-0.5-0.85-0.21-1.94,0.63-2.44c0,0,0.02-0.01,0.02-0.01
			l107.73-61.13l6.73-3.82l1.68-0.96c0.52-0.31,1.03-0.64,1.49-1.02c0.94-0.76,1.76-1.66,2.4-2.69c1.29-2.04,1.88-4.53,1.66-6.95
			c-0.2-2.43-1.22-4.78-2.88-6.57c-0.82-0.91-1.79-1.64-2.88-2.27l-3.33-1.97l-6.67-3.93l-13.34-7.86L371.81,115.76z"/>
		<path class="st4" d="M600.24,223.17l-24.12,15.58l-12.06,7.79c-2.03,1.29-3.97,2.62-6.08,3.87c-2.18,1.15-4.72,1.65-7.19,1.35
			c-1.23-0.15-2.44-0.48-3.58-0.99c-1.15-0.53-2.14-1.16-3.19-1.74l-6.24-3.54l-12.49-7.09l-24.94-14.12
			c-1.99-0.97-4.28-1.32-6.46-0.99c-1.09,0.17-2.15,0.5-3.14,0.98c-0.94,0.47-2.03,1.17-3.05,1.75l-12.38,7.28l-24.75,14.56
			l-49.51,29.11c-0.85,0.5-1.94,0.22-2.44-0.63c-0.5-0.85-0.22-1.94,0.63-2.44c0.01,0,0.02-0.01,0.02-0.01l49.97-28.32l24.98-14.16
			l12.49-7.08c1.07-0.59,2-1.18,3.21-1.77c1.17-0.55,2.42-0.91,3.7-1.09c2.56-0.36,5.21,0.1,7.5,1.26l24.82,14.55l12.38,7.27
			l6.19,3.64c1.03,0.59,2.06,1.26,3.08,1.74c1.04,0.48,2.16,0.81,3.3,0.96c2.29,0.31,4.66-0.11,6.73-1.16
			c2.02-1.15,4.06-2.5,6.09-3.74l12.18-7.61L600.24,223.17z"/>
		<path class="st4" d="M577.02,388.44l-41.8-23.69l-5.22-2.96c-1.68-0.97-3.57-1.52-5.49-1.57c-1.92-0.05-3.84,0.39-5.53,1.27
			c-1.69,0.95-3.44,2.01-5.16,3.02l-20.69,12.2l-10.35,6.1l-5.17,3.05l-2.59,1.53c-0.88,0.5-1.68,1.03-2.69,1.52
			c-1.96,0.94-4.16,1.38-6.34,1.25c-2.16-0.1-4.36-0.86-6.14-1.95l-10.47-5.89l-41.87-23.56c-0.86-0.48-1.16-1.57-0.68-2.43
			c0.48-0.86,1.57-1.16,2.43-0.68c0.01,0.01,0.03,0.01,0.03,0.02l41.34,24.49l10.33,6.12c3.13,2.05,7.15,2.35,10.5,0.78
			c0.8-0.37,1.69-0.92,2.56-1.4l2.61-1.48l5.22-2.96l10.45-5.92l20.9-11.85c1.76-0.99,3.45-1.98,5.26-2.96
			c1.88-0.93,3.99-1.38,6.07-1.28c2.08,0.09,4.14,0.73,5.91,1.8l5.17,3.05L577.02,388.44z"/>
		<path class="st4" d="M414.45,531.23l28.5-16.71l3.56-2.09c1.17-0.71,2.42-1.35,3.49-2.14c2.17-1.59,3.71-3.98,4.31-6.59
			c0.62-2.61,0.28-5.42-0.9-7.8c-1.18-2.43-3.23-4.23-5.68-5.45l-57.44-32.65l-114.88-65.3c-0.86-0.49-1.16-1.57-0.67-2.43
			c0.49-0.86,1.57-1.16,2.43-0.67c0,0,0.02,0.01,0.02,0.01l113.99,66.85l56.99,33.42c2.45,1.25,4.74,3.28,5.93,5.88
			c1.23,2.56,1.54,5.55,0.85,8.29c-0.67,2.75-2.33,5.25-4.63,6.88c-1.16,0.82-2.38,1.43-3.57,2.13l-3.59,2.04L414.45,531.23z"/>
		<path class="st4" d="M89.44,465.84l138.33-81.93c0.85-0.5,1.94-0.22,2.44,0.63c0.5,0.85,0.22,1.94-0.63,2.44
			c-0.01,0.01-0.03,0.01-0.03,0.02L89.44,465.84z"/>
		<path class="st4" d="M161.97,104.89l62.14,35.67l3.88,2.23c1.27,0.76,2.64,1.41,3.81,2.41c2.35,1.94,3.88,4.82,4.22,7.86
			c0.36,3.03-0.45,6.2-2.29,8.67c-0.92,1.23-2.07,2.29-3.38,3.09l-3.87,2.28l-30.91,18.11l-15.46,9.05
			c-2.43,1.43-4.26,3.77-5.02,6.47c-0.77,2.68-0.5,5.64,0.76,8.11c0.62,1.24,1.49,2.33,2.52,3.25c0.53,0.44,1.08,0.86,1.68,1.2
			l1.93,1.1l7.79,4.41l15.59,8.83l62.36,35.3c0.86,0.48,1.16,1.57,0.67,2.43c-0.49,0.86-1.57,1.16-2.43,0.67
			c-0.01,0-0.02-0.01-0.03-0.02l-61.75-36.36l-15.44-9.09l-7.72-4.54l-1.94-1.15c-0.69-0.41-1.32-0.91-1.93-1.44
			c-1.19-1.09-2.18-2.39-2.87-3.83c-1.41-2.89-1.65-6.28-0.72-9.33c0.91-3.06,3.06-5.7,5.82-7.25l15.57-8.86l31.14-17.72l3.88-2.22
			c1.25-0.74,2.34-1.73,3.23-2.88c1.77-2.31,2.58-5.32,2.27-8.22c-0.28-2.91-1.72-5.69-3.96-7.59c-1.1-0.97-2.44-1.63-3.73-2.4
			l-3.87-2.25L161.97,104.89z"/>
		<path class="st4" d="M227.77,353.99l-54.28-31.86l-27.14-15.93l-6.79-3.98c-0.58-0.34-1.1-0.66-1.64-0.9
			c-0.54-0.27-1.11-0.46-1.68-0.63c-1.15-0.32-2.36-0.45-3.56-0.39c-1.2,0.08-2.39,0.34-3.5,0.79c-1.07,0.44-2.2,1.17-3.35,1.8
			l-6.84,3.89L9.53,368.95l108.57-63.72l6.79-3.98c1.14-0.64,2.21-1.37,3.55-1.96c1.31-0.55,2.71-0.88,4.12-1
			c1.42-0.09,2.85,0.04,4.23,0.4c0.68,0.2,1.37,0.41,2.01,0.72c0.66,0.29,1.27,0.65,1.82,0.97l6.84,3.89l27.36,15.54l54.73,31.09
			c0.86,0.49,1.16,1.57,0.67,2.43c-0.49,0.86-1.57,1.16-2.43,0.67C227.79,354,227.77,353.99,227.77,353.99z"/>
		<path class="st4" d="M9.53,291.93l54.45,30.93l6.8,3.85c2.2,1.19,4.8,1.61,7.25,1.18c1.23-0.2,2.42-0.61,3.5-1.21
			c1.1-0.62,2.24-1.31,3.36-1.96l6.75-3.96l27-15.85l6.75-3.96l1.7-0.99c0.62-0.34,1.25-0.65,1.92-0.89
			c1.32-0.5,2.73-0.75,4.14-0.79c1.41-0.05,2.83,0.18,4.19,0.59c1.36,0.4,2.63,1.16,3.72,1.78l6.81,3.87l27.23,15.46l54.45,30.93
			c0.86,0.49,1.16,1.57,0.67,2.43c-0.49,0.86-1.57,1.16-2.43,0.67c0,0-0.02-0.01-0.02-0.01l-54.01-31.7l-27-15.85l-6.75-3.96
			c-1.16-0.68-2.15-1.3-3.29-1.65c-1.13-0.36-2.32-0.57-3.52-0.55c-1.19,0.02-2.39,0.21-3.52,0.62c-0.57,0.19-1.11,0.45-1.64,0.73
			l-1.69,0.96l-6.81,3.87l-27.23,15.46l-6.81,3.87c-1.15,0.64-2.24,1.29-3.43,1.93c-1.21,0.64-2.53,1.07-3.88,1.28
			c-2.7,0.43-5.53-0.08-7.9-1.4l-6.77-3.96L9.53,291.93z"/>
		<path class="st4" d="M543.07,60.88l-36.9,21.47l-18.45,10.74l-9.23,5.37c-1.51,0.92-3.14,1.73-4.52,2.76
			c-1.36,1.07-2.51,2.44-3.25,4c-1.54,3.11-1.56,6.91-0.08,10.04c0.74,1.55,1.81,2.95,3.17,4.02c0.68,0.54,1.39,0.98,2.18,1.42
			l2.32,1.32l18.55,10.57c3.26,1.78,5.65,5.14,6.21,8.85c0.63,3.68-0.49,7.66-3.05,10.44c-0.63,0.69-1.34,1.33-2.11,1.86
			c-0.79,0.54-1.56,0.96-2.33,1.41l-4.61,2.7l-9.21,5.39l-147.39,86.24c-0.85,0.5-1.94,0.21-2.44-0.64
			c-0.5-0.85-0.21-1.94,0.64-2.44c0,0,0.01-0.01,0.02-0.01l148.38-84.54l9.27-5.28l4.64-2.64c0.77-0.44,1.57-0.87,2.25-1.33
			c0.7-0.46,1.33-1.03,1.9-1.64c2.31-2.44,3.36-6,2.83-9.34c-0.47-3.36-2.58-6.41-5.55-8.09l-18.42-10.78l-2.3-1.35
			c-0.76-0.43-1.57-0.93-2.27-1.52c-1.43-1.15-2.56-2.66-3.33-4.33c-1.53-3.34-1.45-7.35,0.2-10.61c0.81-1.64,2.03-3.06,3.47-4.17
			c1.49-1.07,3.07-1.84,4.6-2.76l9.26-5.31l18.52-10.61L543.07,60.88z"/>
		<path class="st4" d="M638.35,302.93l-118.99-67.67l-14.87-8.46l-3.71-2.11c-1.14-0.63-2.39-1.06-3.67-1.25
			c-2.59-0.38-5.22,0.17-7.48,1.61l-29.52,17.3l-59.05,34.61c-0.85,0.5-1.94,0.21-2.44-0.64c-0.5-0.85-0.21-1.94,0.64-2.44
			c0,0,0.02-0.01,0.02-0.01l59.49-33.84l29.75-16.92c2.57-1.6,5.87-2.29,8.92-1.77c1.54,0.24,3.02,0.78,4.36,1.54l3.7,2.16
			l14.76,8.65L638.35,302.93z"/>
		<path class="st4" d="M200.08,600l-20.96-11.9l-10.48-5.95l-5.24-2.97l-2.62-1.49c-0.88-0.5-1.75-1.1-2.5-1.8
			c-3.08-2.79-4.47-7.25-3.65-11.32c0.39-2.04,1.31-3.98,2.66-5.56c0.67-0.79,1.45-1.5,2.3-2.09c0.87-0.6,1.74-1.06,2.61-1.58
			l20.82-12.14l83.27-48.55l41.63-24.28l20.82-12.14l10.41-6.07l2.6-1.52c0.85-0.5,1.8-1.02,2.5-1.5c1.48-1.01,2.67-2.39,3.45-3.98
			c1.58-3.18,1.39-7.19-0.49-10.18c-0.93-1.51-2.24-2.73-3.81-3.62l-5.23-2.99l-20.92-11.96l-41.84-23.92
			c-0.85-0.49-1.15-1.58-0.66-2.43c0.49-0.85,1.58-1.15,2.43-0.66l0.01,0.01l41.63,24.28l20.82,12.14l5.2,3.03
			c1.92,1.1,3.63,2.71,4.79,4.64c2.37,3.86,2.55,8.87,0.52,12.89c-1,2.01-2.54,3.75-4.39,4.99c-0.97,0.64-1.8,1.06-2.68,1.58
			l-2.61,1.5l-10.46,5.98l-20.92,11.96l-41.84,23.92l-83.68,47.84l-20.92,11.96c-0.87,0.5-1.77,0.98-2.56,1.52
			c-0.8,0.55-1.53,1.19-2.16,1.93c-1.27,1.46-2.14,3.26-2.52,5.17c-0.8,3.81,0.46,8.01,3.34,10.66c1.4,1.35,3.25,2.2,4.96,3.26
			l5.19,3.05l10.39,6.1L200.08,600z"/>
		<g>
			<g>
				<linearGradient id="SVGID_1_" gradientUnits="userSpaceOnUse" x1="209.3757" y1="335.4554" x2="438.2095" y2="335.4554">
					<stop  offset="0" style="stop-color:#291875"/>
					<stop  offset="1" style="stop-color:#4951CF"/>
				</linearGradient>
				<path class="st6" d="M386.04,293.65c-16.11-7.61-36.69-12.17-59.13-12.17s-43.01,4.57-59.13,12.17h-34.36v41.81
					c0,29.81,41.85,53.98,93.49,53.98s93.49-24.17,93.49-53.98v-41.81H386.04z"/>
				
					<linearGradient id="Rectangle_66_14_" gradientUnits="userSpaceOnUse" x1="10.2866" y1="-71.9099" x2="14.6019" y2="-66.9894" gradientTransform="matrix(30 0 0 -30 -45.9319 -1790.3884)">
					<stop  offset="0" style="stop-color:#291875"/>
					<stop  offset="0.084" style="stop-color:#2C1D7D"/>
					<stop  offset="1" style="stop-color:#4951CF"/>
				</linearGradient>
				<path id="Rectangle_66_6_" class="st7" d="M326.92,239.67L326.92,239.67c51.63,0,93.49,24.17,93.49,53.98l0,0
					c0,29.81-41.85,53.98-93.49,53.98l0,0c-51.63,0-93.49-24.17-93.49-53.98l0,0C233.43,263.84,275.28,239.67,326.92,239.67z"/>
			</g>
			<g>
				<linearGradient id="SVGID_2_" gradientUnits="userSpaceOnUse" x1="192.8983" y1="363.3186" x2="350.1093" y2="363.3186">
					<stop  offset="0" style="stop-color:#4951CF"/>
					<stop  offset="1" style="stop-color:#3AD7F0"/>
				</linearGradient>
				<path class="st8" d="M208.42,327.43v38.04c0,18.63,26.16,33.74,58.43,33.74c32.27,0,58.43-15.1,58.43-33.74v-38.04H208.42z"/>
				
					<linearGradient id="Rectangle_67_2_" gradientUnits="userSpaceOnUse" x1="13.728" y1="-91.7242" x2="18.7724" y2="-86.4982" gradientTransform="matrix(18.75 0 0 -18.75 -38.6949 -1342.5225)">
					<stop  offset="0" style="stop-color:#4951CF"/>
					<stop  offset="1" style="stop-color:#3AD7F0"/>
				</linearGradient>
				<path id="Rectangle_67_3_" class="st9" d="M266.85,293.7L266.85,293.7c32.27,0,58.43,15.1,58.43,33.74l0,0
					c0,18.63-26.16,33.74-58.43,33.74l0,0c-32.27,0-58.43-15.1-58.43-33.74l0,0C208.42,308.8,234.58,293.7,266.85,293.7z"/>
			</g>
		</g>
		<g>
			<linearGradient id="SVGID_3_" gradientUnits="userSpaceOnUse" x1="-12.1098" y1="498.1935" x2="104.211" y2="498.1935">
				<stop  offset="0" style="stop-color:#291875"/>
				<stop  offset="1" style="stop-color:#4951CF"/>
			</linearGradient>
			<path class="st10" d="M95.16,478.97v11.07c0,15.15-21.28,27.44-47.52,27.44S0.12,505.2,0.12,490.04v-11.14L95.16,478.97z"/>
			
				<linearGradient id="Rectangle_66_15_" gradientUnits="userSpaceOnUse" x1="2.0304" y1="-76.8844" x2="4.2239" y2="-74.3832" gradientTransform="matrix(30 0 0 -30 -45.9319 -1790.3884)">
				<stop  offset="0" style="stop-color:#291875"/>
				<stop  offset="1" style="stop-color:#4951CF"/>
			</linearGradient>
			<path id="Rectangle_66_13_" class="st11" d="M47.64,451.47L47.64,451.47c26.24,0,47.52,12.28,47.52,27.44l0,0
				c0,15.15-21.28,27.44-47.52,27.44l0,0c-26.24,0-47.52-12.28-47.52-27.44l0,0C0.12,463.75,21.39,451.47,47.64,451.47z"/>
		</g>
		<g>
			<linearGradient id="SVGID_4_" gradientUnits="userSpaceOnUse" x1="585.625" y1="219.1637" x2="670.8721" y2="206.1913">
				<stop  offset="0" style="stop-color:#291875"/>
				<stop  offset="1" style="stop-color:#4951CF"/>
			</linearGradient>
			<polygon class="st12" points="562.13,203.91 562.13,192.91 695.51,192.91 695.51,203.91 628.82,242.42 			"/>
			<linearGradient id="SVGID_5_" gradientUnits="userSpaceOnUse" x1="589.3661" y1="216.4611" x2="664.9373" y2="171.3498">
				<stop  offset="0" style="stop-color:#291875"/>
				<stop  offset="1" style="stop-color:#4951CF"/>
			</linearGradient>
			<polygon class="st13" points="562.13,192.91 628.82,154.4 695.51,192.91 628.82,231.42 			"/>
		</g>
		<g>
			<linearGradient id="SVGID_6_" gradientUnits="userSpaceOnUse" x1="554.8628" y1="423.8419" x2="671.1837" y2="423.8419">
				<stop  offset="0" style="stop-color:#4951CF"/>
				<stop  offset="1" style="stop-color:#3AD7F0"/>
			</linearGradient>
			<path class="st14" d="M662.13,404.62v11.07c0,15.15-21.28,27.44-47.52,27.44s-47.52-12.28-47.52-27.44v-11.14L662.13,404.62z"/>
			
				<linearGradient id="Rectangle_66_16_" gradientUnits="userSpaceOnUse" x1="20.9295" y1="-74.406" x2="23.123" y2="-71.9048" gradientTransform="matrix(30 0 0 -30 -45.9319 -1790.3884)">
				<stop  offset="0" style="stop-color:#4951CF"/>
				<stop  offset="1" style="stop-color:#3AD7F0"/>
			</linearGradient>
			<path id="Rectangle_66_1_" class="st15" d="M614.61,377.12L614.61,377.12c26.24,0,47.52,12.28,47.52,27.44l0,0
				c0,15.15-21.28,27.44-47.52,27.44l0,0c-26.24,0-47.52-12.28-47.52-27.44l0,0C567.09,389.4,588.37,377.12,614.61,377.12z"/>
		</g>
		<g>
			<linearGradient id="SVGID_7_" gradientUnits="userSpaceOnUse" x1="24.3687" y1="202.6522" x2="108.0715" y2="188.7532">
				<stop  offset="0" style="stop-color:#4951CF"/>
				<stop  offset="1" style="stop-color:#3AD7F0"/>
			</linearGradient>
			<polygon class="st16" points="0,187.41 0,176.41 133.39,176.41 133.39,187.41 66.69,225.92 			"/>
			<linearGradient id="SVGID_8_" gradientUnits="userSpaceOnUse" x1="21.2794" y1="194.3636" x2="115.7925" y2="156.9907">
				<stop  offset="0" style="stop-color:#4951CF"/>
				<stop  offset="1" style="stop-color:#3AD7F0"/>
			</linearGradient>
			<polygon class="st17" points="0,176.41 66.69,137.9 133.39,176.41 66.69,214.91 			"/>
		</g>
		<g>
			<linearGradient id="SVGID_9_" gradientUnits="userSpaceOnUse" x1="276.7048" y1="107.6067" x2="393.0257" y2="107.6067">
				<stop  offset="0" style="stop-color:#6E27D4"/>
				<stop  offset="1" style="stop-color:#D01CE2"/>
			</linearGradient>
			<path class="st18" d="M383.97,88.39v11.07c0,15.15-21.28,27.44-47.52,27.44c-26.24,0-47.52-12.28-47.52-27.44V88.32L383.97,88.39
				z"/>
			
				<linearGradient id="Rectangle_66_17_" gradientUnits="userSpaceOnUse" x1="11.6575" y1="-63.8649" x2="13.8511" y2="-61.3637" gradientTransform="matrix(30 0 0 -30 -45.9319 -1790.3884)">
				<stop  offset="0" style="stop-color:#6E27D4"/>
				<stop  offset="1" style="stop-color:#D01CE2"/>
			</linearGradient>
			<path id="Rectangle_66_2_" class="st19" d="M336.45,60.88L336.45,60.88c26.24,0,47.52,12.28,47.52,27.44l0,0
				c0,15.15-21.28,27.44-47.52,27.44l0,0c-26.24,0-47.52-12.28-47.52-27.44l0,0C288.93,73.16,310.21,60.88,336.45,60.88z"/>
		</g>
		<g>
			<linearGradient id="SVGID_10_" gradientUnits="userSpaceOnUse" x1="358.9044" y1="575.0018" x2="429.0171" y2="564.5004">
				<stop  offset="0" style="stop-color:#6E27D4"/>
				<stop  offset="1" style="stop-color:#D01CE2"/>
			</linearGradient>
			<polygon class="st20" points="323.94,561.49 323.94,550.49 457.32,550.49 457.32,561.49 390.63,600 			"/>
			<linearGradient id="SVGID_11_" gradientUnits="userSpaceOnUse" x1="329.1822" y1="569.2918" x2="427.0928" y2="539.3318">
				<stop  offset="0" style="stop-color:#6E27D4"/>
				<stop  offset="1" style="stop-color:#D01CE2"/>
			</linearGradient>
			<polygon class="st21" points="323.94,550.49 390.63,511.98 457.32,550.49 390.63,589 			"/>
		</g>
		
			<ellipse transform="matrix(0.9985 -0.054 0.054 0.9985 -25.7807 3.2654)" class="st22" cx="47.5" cy="478.39" rx="14.71" ry="10.45"/>
		
			<ellipse transform="matrix(0.9985 -0.054 0.054 0.9985 -20.9445 33.8452)" class="st22" cx="615.42" cy="404.24" rx="14.71" ry="10.45"/>
		<g>
			<path class="st23" d="M42.72,478.27c0.09,0.52,0.23,1.11,0.7,1.35c0.35,0.17,0.77,0.08,1.14-0.05c1.02-0.37,1.93-1.03,2.61-1.88
				c0.35-0.44,0.53-1.26-0.01-1.43c-0.16-0.05-0.34-0.01-0.5,0.03c-0.9,0.24-1.79,0.55-2.64,0.94l-1.35,0.74
				C42.69,478.07,42.7,478.17,42.72,478.27z"/>
			<path class="st23" d="M49.55,481.57c2.23-0.29,4.28-2.62,3.14-3.08c-1.14-0.46-3.31,0.8-3.31,0.8l-1.77,0.25
				C47.58,481.23,47.67,481.81,49.55,481.57z"/>
			<linearGradient id="SVGID_12_" gradientUnits="userSpaceOnUse" x1="70.8533" y1="432.7988" x2="33.7154" y2="462.3056">
				<stop  offset="0" style="stop-color:#4951CF"/>
				<stop  offset="1" style="stop-color:#291875"/>
			</linearGradient>
			<path class="st24" d="M39.84,428.01c-0.26,0.96-0.45,1.98-0.56,3.04c-0.43,4.14,0.25,8.77,1.32,12.31
				c0.65,2.14,1.65,4.21,1.8,6.44c0.14,2.01-0.42,4-0.8,5.98c-1.38,7.32-0.18,14.85,1.06,22.2l1.35-0.74
				c0.06-3.06,0.13-6.13,0.28-9.19c0.11-2.23,0-4.88,0.74-7.02c0.86-2.46,0.88-5.42,1.14-7.99c0.35-3.48,0.64-6.96,0.92-10.44
				c0.61,3.86,0.54,7.79,0.16,11.67c-0.33,3.47-1.45,7.13-1.22,10.59c0.31,4.53,1.6,9.08,1.58,13.62c0,0.39-0.01,0.74-0.01,1.05
				l1.77-0.25c0.67-0.39,0.31-6.58,0.35-7.4c0.23-4.1,0.79-8.22,1.18-12.31c0.19-2.02,0.39-4.04,0.78-6.03
				c1.56-7.87,5.57-14.89,4.07-23.1c-1.84,0.68-4.5,1.34-7.88,1.34C43.24,431.79,40.88,429.49,39.84,428.01z"/>
			<path class="st23" d="M53.99,395.35c-0.78,0.85-1.3,1.9-1.79,2.94c-0.31,0.65-0.63,1.33-0.81,2.03c0.71,0.35,1.44,0.67,2.19,0.93
				c0.61,0.21,0.96,0.02,1.29-0.51c1.22-1.94,2.08-4.1,2.52-6.35c0.13-0.67,0.13-1.31-0.05-1.85
				C56.27,393.53,54.97,394.27,53.99,395.35z"/>
			<path class="st23" d="M69.76,409.43c-1.52,0-4.64,2.5-5.71,3.61c-1.15,1.19-2.48,2.49-3.95,3.27c-0.07,0.04-0.14,0.07-0.21,0.06
				c-0.11-0.02-0.17-0.13-0.22-0.22c-0.48-0.94-0.92-1.9-1.35-2.86c-0.71-1.55-1.42-3.11-2.29-4.58c-0.13-0.23-0.26-0.46-0.4-0.68
				c-0.55-0.86-1.22-1.93-2.4-1.76c-0.3,0.04-0.58,0.16-0.83,0.32c-0.27,0.17-0.5,0.4-0.68,0.66c-0.22,0.32-0.38,0.69-0.44,1.07
				c-0.02,0.14-0.03,0.27-0.02,0.41c0.03,0.63,0.35,1.21,0.67,1.76c0.96,1.65,2.01,3.27,3.16,4.8c1.05,1.4,2.17,2.73,3.41,3.97
				c0.25,0.26,0.52,0.51,0.85,0.66c1.38,0.63,3.11-1.92,3.84-2.78c1.27-1.5,2.47-3.07,3.81-4.52c0.53-0.58,1.5-1.84,2.41-1.8
				c0.74,0.03,2.46-0.25,2.46-0.62S71.28,409.43,69.76,409.43z"/>
			<path class="st23" d="M44.17,418.84c-0.42-0.62-0.78-1.28-1.06-1.98c-0.58-1.47-0.78-3.03-0.66-4.6c0.06-0.78,0.24-1.5,0.44-2.25
				c0.04-0.16,0.08-0.34,0.12-0.52c-0.49,0.17-0.99,0.3-1.5,0.34c-0.52,0.04-1.07-0.02-1.48-0.35c-0.09-0.07-0.17-0.16-0.24-0.25
				c-0.05,0.75-0.11,1.67-0.11,1.79c-0.14,3.61,0.89,7.56,3.11,10.49c0.32-0.59,0.64-1.18,0.94-1.78
				C43.89,419.43,44.04,419.14,44.17,418.84z"/>
			<g>
				<linearGradient id="SVGID_13_" gradientUnits="userSpaceOnUse" x1="27.2132" y1="416.8719" x2="57.973" y2="386.9075">
					<stop  offset="0" style="stop-color:#4951CF"/>
					<stop  offset="1" style="stop-color:#3AD7F0"/>
				</linearGradient>
				<path class="st25" d="M41.91,404.1c0.7-0.64,1.31-1.5,1.25-2.45c-0.03-0.47-0.22-0.9-0.46-1.32c-1.02,0.59-1.34,2-0.9,3.87
					C41.84,404.16,41.87,404.13,41.91,404.1z"/>
				<linearGradient id="SVGID_14_" gradientUnits="userSpaceOnUse" x1="35.1184" y1="424.987" x2="65.8783" y2="395.0227">
					<stop  offset="0" style="stop-color:#4951CF"/>
					<stop  offset="1" style="stop-color:#3AD7F0"/>
				</linearGradient>
				<path class="st26" d="M52.4,406.58c0.25-0.16,0.53-0.28,0.83-0.32c1.17-0.17,1.85,0.9,2.4,1.76c0.14,0.22,0.27,0.45,0.4,0.68
					c-0.52-1.1-1.31-2.08-2.16-2.97c-0.51-0.53-1.06-1.04-1.62-1.52c0.11,0.36,0.19,0.73,0.22,1.11
					C52.51,405.75,52.49,406.17,52.4,406.58z"/>
				<linearGradient id="SVGID_15_" gradientUnits="userSpaceOnUse" x1="39.5845" y1="429.5716" x2="70.3443" y2="399.6073">
					<stop  offset="0" style="stop-color:#4951CF"/>
					<stop  offset="1" style="stop-color:#3AD7F0"/>
				</linearGradient>
				<path class="st27" d="M52.7,420.55c-0.17-0.46-0.34-0.93-0.3-1.42c0.06-0.7,0.55-1.28,1.03-1.81c0.57-0.64,1.15-1.32,1.66-2.04
					c-1.15-1.53-2.2-3.14-3.16-4.8c-0.32-0.55-0.64-1.13-0.67-1.76c-0.01-0.14,0-0.27,0.02-0.41c-0.65,0.47-1.47,0.69-2.26,0.65
					c-1.09-0.06-2.1-0.57-3.19-0.57c-0.74,0-1.39,0.49-2.04,0.78c-0.2,0.09-0.4,0.17-0.61,0.25c0.38,1.43,0.76,2.86,1.14,4.3
					c0.27,1.01,0.54,2.05,0.44,3.1c-0.07,0.7-0.3,1.37-0.59,2.01c-0.13,0.3-0.28,0.6-0.43,0.89c-0.3,0.6-0.62,1.19-0.94,1.78
					c-0.89,1.66-1.8,3.31-2.49,5.06c-0.18,0.46-0.33,0.95-0.47,1.45c1.04,1.48,3.4,3.78,8.05,3.78c3.37,0,6.03-0.66,7.88-1.34
					c-0.02-0.08-0.03-0.17-0.04-0.25C55.07,426.89,53.88,423.71,52.7,420.55z"/>
			</g>
			<linearGradient id="SVGID_16_" gradientUnits="userSpaceOnUse" x1="27.8522" y1="405.5563" x2="60.2989" y2="393.4377">
				<stop  offset="0" style="stop-color:#6E27D4"/>
				<stop  offset="1" style="stop-color:#D01CE2"/>
			</linearGradient>
			<path class="st28" d="M43.18,409.43c0.2-0.08,0.41-0.16,0.61-0.25c0.65-0.29,1.3-0.78,2.04-0.78c1.09,0,2.1,0.52,3.19,0.57
				c0.79,0.04,1.62-0.18,2.26-0.65c0.06-0.38,0.22-0.76,0.44-1.07c0.18-0.26,0.42-0.49,0.68-0.66c0.09-0.41,0.11-0.84,0.07-1.25
				c-0.03-0.38-0.12-0.75-0.22-1.11c-0.12-0.42-0.27-0.82-0.44-1.22c-0.29-0.71-0.63-1.44-0.52-2.22c0.02-0.15,0.05-0.31,0.09-0.46
				c0.17-0.71,0.5-1.39,0.81-2.03c0.49-1.04,1.02-2.09,1.79-2.94c0.99-1.08,2.28-1.82,3.35-2.82c0.15-0.14,0.3-0.29,0.45-0.45
				c0.24-0.25,0.46-0.54,0.54-0.87c0.27-1.18-1.28-2.25-2.03-2.92c-0.99-0.89-2.06-1.71-3.26-2.3c-0.57-0.28-1.17-0.51-1.8-0.54
				c-0.03,0-0.07,0-0.1,0c-0.96-0.02-1.87,0.45-2.64,1.02c-1.06,0.79-1.89,1.85-2.44,3.04c-0.55,1.2-0.48,2.77-1.4,3.77
				c-0.54,0.58-1.35,0.85-1.97,1.36c-0.77,0.63-1.22,1.63-1.17,2.63c0.05,1.03,0.59,1.96,0.98,2.91c0.6,1.43,0.59,2.82-0.6,3.92
				c-0.04,0.03-0.07,0.07-0.11,0.1c-1.04,0.93-2.48,1.79-2.44,3.35c0.01,0.59,0.1,1.23,0.45,1.68c0.07,0.09,0.14,0.18,0.24,0.25
				c0.41,0.32,0.96,0.38,1.48,0.35C42.03,409.78,42.69,409.6,43.18,409.43z"/>
		</g>
		<path class="st4" d="M66.69,384.21v22.56l3.63,0l4.25-1.32l25.6,15.72l0.93,0.47c2.19,0.6,5.79,0.58,5.79-2.57v-17.01
			c0-0.82-0.44-1.58-1.15-1.99l-33.74-19.48C70.87,379.95,66.69,381.18,66.69,384.21L66.69,384.21z"/>
		<path class="st23" d="M66.69,406.77l5.61-1.57l29.05,16.77c1.53,0.88,3.45-0.22,3.45-1.99v-16.7c0-0.82-0.44-1.58-1.15-1.99
			l-33.52-19.35c-1.53-0.88-3.45,0.22-3.45,1.99V406.77z"/>
		<g>
			<path class="st4" d="M619.65,404.54c-0.09,0.52-0.23,1.11-0.7,1.35c-0.35,0.17-0.77,0.08-1.14-0.05
				c-1.02-0.37-1.93-1.03-2.61-1.88c-0.35-0.44-0.53-1.26,0.01-1.43c0.16-0.05,0.34-0.01,0.5,0.03c0.9,0.24,1.79,0.55,2.64,0.94
				l1.35,0.74C619.69,404.34,619.67,404.44,619.65,404.54z"/>
			<path class="st4" d="M612.82,407.83c-2.23-0.29-4.28-2.62-3.14-3.08c1.14-0.46,3.31,0.8,3.31,0.8l1.77,0.25
				C614.79,407.5,614.7,408.07,612.82,407.83z"/>
			<linearGradient id="SVGID_17_" gradientUnits="userSpaceOnUse" x1="604.1146" y1="400.9961" x2="621.7125" y2="361.0516">
				<stop  offset="0" style="stop-color:#6E27D4"/>
				<stop  offset="1" style="stop-color:#D01CE2"/>
			</linearGradient>
			<path class="st29" d="M622.53,354.28c0.26,0.96,0.45,1.98,0.56,3.04c0.43,4.14-0.25,8.77-1.32,12.31
				c-0.65,2.14-1.65,4.21-1.8,6.44c-0.14,2.01,0.42,4,0.8,5.98c1.38,7.32,0.18,14.85-1.06,22.2l-1.35-0.74
				c-0.06-3.06-0.13-6.13-0.28-9.19c-0.11-2.23,0-4.88-0.74-7.02c-0.86-2.46-0.88-5.42-1.14-7.99c-0.35-3.48-0.64-6.96-0.92-10.44
				c-0.61,3.86-0.54,7.79-0.16,11.67c0.33,3.47,1.45,7.13,1.22,10.59c-0.31,4.53-1.6,9.08-1.58,13.62c0,0.39,0.01,0.74,0.01,1.05
				l-1.77-0.25c-0.67-0.39-0.31-6.58-0.35-7.4c-0.23-4.1-0.79-8.22-1.18-12.31c-0.19-2.02-0.39-4.04-0.78-6.03
				c-1.56-7.87-5.57-14.89-4.07-23.1c1.84,0.68,4.5,1.34,7.88,1.34C619.13,358.06,621.49,355.76,622.53,354.28z"/>
			<path class="st4" d="M608.39,321.62c0.78,0.85,1.3,1.9,1.79,2.94c0.31,0.65,0.63,1.33,0.81,2.03c-0.71,0.35-1.44,0.67-2.19,0.93
				c-0.61,0.21-0.96,0.02-1.29-0.51c-1.22-1.94-2.08-4.1-2.52-6.35c-0.13-0.67-0.13-1.31,0.05-1.85
				C606.11,319.8,607.4,320.54,608.39,321.62z"/>
			<path class="st4" d="M592.62,335.69c1.52,0,4.64,2.5,5.71,3.61c1.15,1.19,2.48,2.49,3.95,3.27c0.07,0.04,0.14,0.07,0.21,0.06
				c0.11-0.02,0.17-0.13,0.22-0.22c0.48-0.94,0.92-1.9,1.35-2.86c0.71-1.55,1.42-3.11,2.29-4.58c0.13-0.23,0.26-0.46,0.4-0.68
				c0.55-0.86,1.22-1.93,2.4-1.76c0.3,0.04,0.58,0.16,0.83,0.32c0.27,0.17,0.5,0.4,0.68,0.66c0.22,0.32,0.38,0.69,0.44,1.07
				c0.02,0.14,0.03,0.27,0.02,0.41c-0.03,0.63-0.35,1.21-0.67,1.76c-0.96,1.65-2.01,3.27-3.16,4.8c-1.05,1.4-2.17,2.73-3.41,3.97
				c-0.25,0.26-0.52,0.51-0.85,0.66c-1.38,0.63-3.11-1.92-3.84-2.78c-1.27-1.5-2.47-3.07-3.81-4.52c-0.53-0.58-1.5-1.84-2.41-1.8
				c-0.74,0.03-2.46-0.25-2.46-0.62S591.1,335.69,592.62,335.69z"/>
			<path class="st4" d="M618.2,345.1c0.42-0.62,0.78-1.28,1.06-1.98c0.58-1.47,0.78-3.03,0.66-4.6c-0.06-0.78-0.24-1.5-0.44-2.25
				c-0.04-0.16-0.08-0.34-0.12-0.52c0.49,0.17,0.99,0.3,1.5,0.34c0.52,0.04,1.07-0.02,1.48-0.35c0.09-0.07,0.17-0.16,0.24-0.25
				c0.05,0.75,0.11,1.67,0.11,1.79c0.14,3.61-0.89,7.56-3.11,10.49c-0.32-0.59-0.64-1.18-0.94-1.78
				C618.48,345.7,618.34,345.4,618.2,345.1z"/>
			<g>
				<linearGradient id="SVGID_18_" gradientUnits="userSpaceOnUse" x1="599.6031" y1="353.2188" x2="617.4803" y2="331.7102">
					<stop  offset="0" style="stop-color:#4951CF"/>
					<stop  offset="1" style="stop-color:#3AD7F0"/>
				</linearGradient>
				<path class="st30" d="M620.46,330.36c-0.7-0.64-1.31-1.5-1.25-2.45c0.03-0.47,0.22-0.9,0.46-1.32c1.02,0.59,1.34,2,0.9,3.87
					C620.54,330.43,620.5,330.4,620.46,330.36z"/>
				<linearGradient id="SVGID_19_" gradientUnits="userSpaceOnUse" x1="595.0645" y1="349.4464" x2="612.9417" y2="327.9378">
					<stop  offset="0" style="stop-color:#4951CF"/>
					<stop  offset="1" style="stop-color:#3AD7F0"/>
				</linearGradient>
				<path class="st31" d="M609.98,332.85c-0.25-0.16-0.53-0.28-0.83-0.32c-1.17-0.17-1.85,0.9-2.4,1.76
					c-0.14,0.22-0.27,0.45-0.4,0.68c0.52-1.1,1.31-2.08,2.16-2.97c0.51-0.53,1.06-1.04,1.62-1.52c-0.11,0.36-0.19,0.73-0.22,1.11
					C609.87,332.01,609.89,332.44,609.98,332.85z"/>
				<linearGradient id="SVGID_20_" gradientUnits="userSpaceOnUse" x1="605.4726" y1="358.0974" x2="623.3499" y2="336.5888">
					<stop  offset="0" style="stop-color:#4951CF"/>
					<stop  offset="1" style="stop-color:#3AD7F0"/>
				</linearGradient>
				<path class="st32" d="M609.68,346.82c0.17-0.46,0.34-0.93,0.3-1.42c-0.06-0.7-0.55-1.28-1.03-1.81
					c-0.57-0.64-1.15-1.32-1.66-2.04c1.15-1.53,2.2-3.14,3.16-4.8c0.32-0.55,0.64-1.13,0.67-1.76c0.01-0.14,0-0.27-0.02-0.41
					c0.65,0.47,1.47,0.69,2.26,0.65c1.09-0.06,2.1-0.57,3.19-0.57c0.74,0,1.39,0.49,2.04,0.78c0.2,0.09,0.4,0.17,0.61,0.25
					c-0.38,1.43-0.76,2.86-1.14,4.3c-0.27,1.01-0.54,2.05-0.44,3.1c0.07,0.7,0.3,1.37,0.59,2.01c0.13,0.3,0.28,0.6,0.43,0.89
					c0.3,0.6,0.62,1.19,0.94,1.78c0.89,1.66,1.8,3.31,2.49,5.06c0.18,0.46,0.33,0.95,0.47,1.45c-1.04,1.48-3.4,3.78-8.05,3.78
					c-3.37,0-6.03-0.66-7.88-1.34c0.02-0.08,0.03-0.17,0.04-0.25C607.3,353.15,608.49,349.98,609.68,346.82z"/>
			</g>
			<linearGradient id="SVGID_21_" gradientUnits="userSpaceOnUse" x1="617.4871" y1="308.5787" x2="611.0624" y2="336.2326">
				<stop  offset="0" style="stop-color:#4951CF"/>
				<stop  offset="1" style="stop-color:#291875"/>
			</linearGradient>
			<path class="st33" d="M619.2,335.69c-0.2-0.08-0.41-0.16-0.61-0.25c-0.65-0.29-1.3-0.78-2.04-0.78c-1.09,0-2.1,0.52-3.19,0.57
				c-0.79,0.04-1.62-0.18-2.26-0.65c-0.06-0.38-0.22-0.76-0.44-1.07c-0.18-0.26-0.42-0.49-0.68-0.66c-0.09-0.41-0.11-0.84-0.07-1.25
				c0.03-0.38,0.12-0.75,0.22-1.11c0.12-0.42,0.27-0.82,0.44-1.22c0.29-0.71,0.63-1.44,0.52-2.22c-0.02-0.15-0.05-0.31-0.09-0.46
				c-0.17-0.71-0.5-1.39-0.81-2.03c-0.49-1.04-1.02-2.09-1.79-2.94c-0.99-1.08-2.28-1.82-3.35-2.82c-0.15-0.14-0.3-0.29-0.45-0.45
				c-0.24-0.25-0.46-0.54-0.54-0.87c-0.27-1.18,1.28-2.25,2.03-2.92c0.99-0.89,2.06-1.71,3.26-2.3c0.57-0.28,1.17-0.51,1.8-0.54
				c0.03,0,0.07,0,0.1,0c0.96-0.02,1.87,0.45,2.64,1.02c1.06,0.79,1.89,1.85,2.44,3.04c0.55,1.2,0.48,2.77,1.4,3.76
				c0.54,0.58,1.35,0.85,1.97,1.36c0.77,0.63,1.22,1.63,1.17,2.63c-0.05,1.03-0.59,1.96-0.98,2.91c-0.6,1.43-0.59,2.82,0.6,3.92
				c0.04,0.03,0.07,0.07,0.11,0.1c1.04,0.93,2.48,1.79,2.44,3.35c-0.01,0.59-0.1,1.23-0.45,1.68c-0.07,0.09-0.14,0.18-0.24,0.25
				c-0.41,0.32-0.96,0.38-1.48,0.35C620.34,336.05,619.68,335.86,619.2,335.69z"/>
		</g>
		<path class="st4" d="M595.68,310.47v22.56l-3.63,0l-4.25-1.32l-25.6,15.72l-0.93,0.47c-2.19,0.6-5.79,0.58-5.79-2.57v-17.01
			c0-0.82,0.44-1.58,1.15-1.99l33.74-19.48C591.51,306.22,595.68,307.45,595.68,310.47L595.68,310.47z"/>
		<linearGradient id="SVGID_22_" gradientUnits="userSpaceOnUse" x1="594.3156" y1="310.7296" x2="561.842" y2="347.6824">
			<stop  offset="0" style="stop-color:#4951CF"/>
			<stop  offset="1" style="stop-color:#291875"/>
		</linearGradient>
		<path class="st34" d="M595.68,333.04l-5.61-1.57l-29.05,16.77c-1.53,0.88-3.45-0.22-3.45-1.99v-16.7c0-0.82,0.44-1.58,1.15-1.99
			l33.52-19.35c1.53-0.88,3.45,0.22,3.45,1.99V333.04z"/>
		<g>
			<g>
				
					<ellipse transform="matrix(0.9995 -0.0317 0.0317 0.9995 -10.0321 18.5998)" class="st4" cx="582.18" cy="326.01" rx="1.53" ry="2.65"/>
			</g>
			<g>
				
					<ellipse transform="matrix(0.9995 -0.0317 0.0317 0.9995 -10.129 18.4229)" class="st4" cx="576.55" cy="328.99" rx="1.53" ry="2.65"/>
			</g>
			<g>
				
					<ellipse transform="matrix(0.9995 -0.0317 0.0317 0.9995 -10.2267 18.2365)" class="st4" cx="570.61" cy="331.98" rx="1.53" ry="2.65"/>
			</g>
		</g>
		<ellipse class="st22" cx="336.45" cy="87.09" rx="14.71" ry="10.45"/>
		<g>
			<linearGradient id="SVGID_23_" gradientUnits="userSpaceOnUse" x1="343.8467" y1="-0.2353" x2="333.3788" y2="8.4484">
				<stop  offset="0" style="stop-color:#4951CF"/>
				<stop  offset="1" style="stop-color:#291875"/>
			</linearGradient>
			<path class="st35" d="M344.4,0.68c0,0-0.06,0.95-0.93,0.95c-1.63,0-1.98-1.63-5.24-1.63c-3.26,0-6.27,2.92-6.27,5.41
				s1.89,5.24,1.89,5.24c0.02-0.48,0.11-0.81,0.25-1.03c0.81-1.3,3.28,1.8,3.28,1.8c-0.34-1.29-0.34-5.07-0.34-5.07
				c3.08,0,5.57-0.23,7.04-0.9c0.93-0.42,1.46-1.02,1.46-1.85C345.52,1.46,344.4,0.68,344.4,0.68z"/>
			<linearGradient id="SVGID_24_" gradientUnits="userSpaceOnUse" x1="335.8236" y1="16.2605" x2="341.8903" y2="8.5284">
				<stop  offset="0" style="stop-color:#6E27D4"/>
				<stop  offset="1" style="stop-color:#D01CE2"/>
			</linearGradient>
			<path class="st36" d="M337.02,6.36c0,0,0,3.78,0.34,5.07c0,0-2.47-3.1-3.28-1.8c-0.13,0.21-0.22,0.54-0.25,1.03l3.09,2.75v2.49
				c0,0,1.46,2.4,3.44,2.4c1.98,0,2.06-3.01,2.06-3.01s0.04-0.02,0.11-0.06c0.37-0.23,1.52-1.09,1.52-3.11c0-1.78,0-5.06,0-6.65
				C342.59,6.13,340.1,6.36,337.02,6.36z"/>
			<linearGradient id="SVGID_25_" gradientUnits="userSpaceOnUse" x1="328.2576" y1="41.3308" x2="332.6589" y2="40.6171">
				<stop  offset="0" style="stop-color:#6E27D4"/>
				<stop  offset="1" style="stop-color:#D01CE2"/>
			</linearGradient>
			<path class="st37" d="M333.64,48.63c-0.31-0.51-1.06-0.73-1.56-1.24c-0.18-0.18-0.44-0.94-0.62-2.4
				c-0.31-2.55-0.34-7.22,0.82-14.61c-1.42-0.17-2.46-0.46-3.19-0.77c-0.21,1.58-0.8,6.4-0.8,9.33c0,2.49,0.68,7.62,2.04,10.69
				c0.58,1.31,1.28,2.25,2.1,2.44c2.75,0.65,0.21-2.77,0.21-2.77S334.04,49.3,333.64,48.63z"/>
			<linearGradient id="SVGID_26_" gradientUnits="userSpaceOnUse" x1="331.97" y1="43.1611" x2="347.2478" y2="18.9712">
				<stop  offset="0" style="stop-color:#4951CF"/>
				<stop  offset="1" style="stop-color:#3AD7F0"/>
			</linearGradient>
			<path class="st38" d="M347.8,28.03l0.23-0.19l2.74-2.29l0.46-0.38c0,0-2.86-9.98-6.9-9.98c-0.63,0-1.23,0.01-1.78,0.03
				c-0.07,0.04-0.11,0.06-0.11,0.06s-0.09,3.01-2.06,3.01c-1.98,0-3.44-2.4-3.44-2.4s-8.03,3.45-9.6,12.42c0,0,0.33,0.68,1.75,1.28
				c0.73,0.31,1.77,0.6,3.19,0.77c0.23,0.03,0.47,0.05,0.72,0.07c0,0-0.18,9.25-1.04,13.35c0,0,0.76,1.4,5.42,1.4
				c4.02,0,9.3-1.88,10.66-3.08c0.21-0.19,0.33-0.36,0.33-0.51c0-1.07-1.74-3.98-1.74-8.64S346.85,27.92,347.8,28.03z"/>
			<linearGradient id="SVGID_27_" gradientUnits="userSpaceOnUse" x1="354.8636" y1="33.8651" x2="356.6479" y2="31.8429">
				<stop  offset="0" style="stop-color:#6E27D4"/>
				<stop  offset="1" style="stop-color:#D01CE2"/>
			</linearGradient>
			<path class="st39" d="M360.11,34.83c-0.23-0.22-7.4-6.58-8.29-7.57c-0.24-0.27-0.63-0.92-1.06-1.71l-2.74,2.29
				c1.4,1.53,3.11,3.18,3.35,3.44c0.41,0.44,7.8,4.97,8,4.97c0.06,0,0.65,0.83,2.29,0.83c1.26,0,3.04-0.03,3.04-0.77
				c0-0.77-1.64-0.95-2.51-0.95C361.27,35.36,360.38,35.08,360.11,34.83z"/>
			<linearGradient id="SVGID_28_" gradientUnits="userSpaceOnUse" x1="328.4979" y1="90.7864" x2="330.3897" y2="89.5105">
				<stop  offset="0" style="stop-color:#6E27D4"/>
				<stop  offset="1" style="stop-color:#D01CE2"/>
			</linearGradient>
			<path class="st40" d="M327.53,87.78c-0.08,0.7-0.18,1.8-0.06,2.05c0.18,0.37,2.75,2.43,3.84,2.43c1.09,0,1.09-0.78,1.09-1.05
				c0-0.51-2.59-2.32-3.19-3.3c-0.18,0.04-0.38,0.07-0.61,0.07C328.15,87.97,327.78,87.87,327.53,87.78z"/>
			<linearGradient id="SVGID_29_" gradientUnits="userSpaceOnUse" x1="341.6264" y1="85.4632" x2="342.8583" y2="83.8794">
				<stop  offset="0" style="stop-color:#6E27D4"/>
				<stop  offset="1" style="stop-color:#D01CE2"/>
			</linearGradient>
			<path class="st41" d="M340.31,82.68c-0.15,0.67-0.38,1.95-0.08,2.18c0.4,0.31,3.49,0.81,3.72,0.76c0.22-0.04,2.37-0.09,0.58-0.85
				c-1.49-0.63-2.29-1.15-2.47-1.98c-0.25,0.09-0.54,0.18-0.85,0.18C340.78,82.97,340.48,82.81,340.31,82.68z"/>
			<linearGradient id="SVGID_30_" gradientUnits="userSpaceOnUse" x1="348.6082" y1="47.0848" x2="323.2442" y2="83.0661">
				<stop  offset="0" style="stop-color:#4951CF"/>
				<stop  offset="1" style="stop-color:#291875"/>
			</linearGradient>
			<path class="st42" d="M348.03,42.11L348.03,42.11c-1.36,1.2-6.63,3.08-10.66,3.08c-4.65,0-5.42-1.4-5.42-1.4s-0.22,0.44-0.5,1.19
				c0.18,1.46,0.44,2.22,0.62,2.4c0.51,0.51,1.26,0.73,1.56,1.24c0.41,0.67-1,0.67-1,0.67s2.55,3.42-0.21,2.77
				c-0.82-0.2-1.52-1.13-2.1-2.44c-0.08,0.69-0.14,1.41-0.14,2.16c0,4.47,0.8,11.5-0.85,15.57s-2.18,11.79-2.18,20.26
				c0,0,0.14,0.09,0.37,0.18c0.25,0.1,0.62,0.2,1.07,0.2c0.23,0,0.43-0.03,0.61-0.07c0.49-0.11,0.77-0.31,0.77-0.31
				s2.13-13.63,2.77-14.48s4.68-9,4.9-11.87c0.21-2.87,1.85-5.8,2.28-5.86s1.82,5.22,1.82,8.89c0,3.67-1.6,11.49-1.6,18.26
				c0,0,0.06,0.06,0.16,0.14c0.17,0.13,0.48,0.29,0.9,0.29c0.3,0,0.6-0.08,0.85-0.18c0.31-0.12,0.54-0.25,0.54-0.25
				s3.87-11.32,4.21-12.03c0.31-0.65,1.7-12.88,1.7-16.77C348.5,49.86,348.03,42.11,348.03,42.11z"/>
			<g>
				<path class="st4" d="M376.55,14.2c0.23-0.53-0.26-1.09-0.81-0.92l-5.45,0.79c-0.23,0.07-0.38,0.38-0.56,0.21l-1.78-2.04
					l0.24-0.02l0.27-0.79l-1.18-0.03l0,0c-0.3-0.01-0.6,0.17-0.68,0.51l-1.99,5.86c-0.04,0.16-0.13,0.29-0.26,0.39l-5.41,4.1
					c-0.37,0.27-0.37,0.82,0,1.09l4.19,3c0.19,0.13,0.29,0.35,0.28,0.58l-0.2,3.76c0.03,0.3,0.39,0.73,0.8,0.73
					c0.41,0,0.83-0.12,1.04-0.34l1.49-3.46c0.14-0.13,1.83-0.55,2.02-0.54l5.03,0.4c0.41,0.02,0.7,0.07,0.66-0.34l-2.33-6.05
					c-0.01-0.11,0.01-0.22,0.05-0.32C372.32,19.99,375.64,16.25,376.55,14.2z"/>
				<linearGradient id="SVGID_31_" gradientUnits="userSpaceOnUse" x1="363.4154" y1="30.4571" x2="375.4589" y2="13.4457">
					<stop  offset="0" style="stop-color:#6E27D4"/>
					<stop  offset="1" style="stop-color:#D01CE2"/>
				</linearGradient>
				<path class="st43" d="M376.84,14.28c-0.91,2.05-2.48,5.74-2.82,6.53c-0.04,0.1-0.06,0.21-0.05,0.32l0.56,5.86
					c0.04,0.41-0.3,0.76-0.71,0.73l-4.73-0.27c-0.19-0.01-0.37,0.06-0.51,0.19l-3.48,3.42c-0.44,0.43-1.18,0.1-1.14-0.52l0.22-4.17
					c0.01-0.23-0.09-0.45-0.28-0.58l-3.37-2.43c-0.37-0.27-0.37-0.82,0-1.09l5.48-3.98c0.13-0.09,0.22-0.23,0.26-0.39l1.45-5.98
					c0.12-0.5,0.73-0.68,1.11-0.34l2.95,2.71c0.18,0.16,0.42,0.22,0.65,0.15l3.61-1.11C376.58,13.19,377.07,13.75,376.84,14.28z"/>
			</g>
		</g>
		<path class="st4" d="M82.69,404.95v-7.67c0-0.74,0.93-1.08,1.4-0.51l5.29,6.26c0.38,0.45,0.16,1.13-0.4,1.28l-5.29,1.41
			C83.18,405.85,82.69,405.47,82.69,404.95z"/>
	</g>
</g>
<g id="Assets">
</g>
</svg>
