<svg id="review" xmlns="http://www.w3.org/2000/svg" width="17.427" height="15.248" viewBox="0 0 17.427 15.248">
  <path id="Path_496" data-name="Path 496" d="M0,1.089V9.8a1.089,1.089,0,0,0,1.089,1.089H4.357V0H1.089A1.089,1.089,0,0,0,0,1.089Z" transform="translate(0 4.357)" fill="#4951cf"/>
  <path id="Path_497" data-name="Path 497" d="M9.97,5.476H6.752a.545.545,0,0,1-.477-.809L7.41,2.624A1.633,1.633,0,0,0,6.378.246l-.8-.2A.544.544,0,0,0,5.041.21L.7,5.035A2.722,2.722,0,0,0,0,6.856v5.7a2.726,2.726,0,0,0,2.723,2.723H8.141a2.729,2.729,0,0,0,2.626-2L11.929,7.94A2.011,2.011,0,0,0,9.97,5.476Z" transform="translate(5.446 -0.03)" fill="#4951cf"/>
</svg>
