<svg id="Laag_2" data-name="Laag 2" xmlns="http://www.w3.org/2000/svg" viewBox="0 0 100 87.5"><defs><style>.cls-1{fill:#dadada;}</style></defs><path id="Path_496" data-name="Path 496" class="cls-1" d="M0,31.25v50a6.25,6.25,0,0,0,6.25,6.25H25V25H6.25A6.25,6.25,0,0,0,0,31.25Z"/><path id="Path_497" data-name="Path 497" class="cls-1" d="M88.46,31.25H70a3.13,3.13,0,0,1-2.73-4.64l6.51-11.72A9.37,9.37,0,0,0,67.85,1.24L63.26.09a3.11,3.11,0,0,0-3.08,1L35.27,28.72a15.59,15.59,0,0,0-4,10.45V71.88A15.64,15.64,0,0,0,46.88,87.5H78A15.65,15.65,0,0,0,93,76L99.7,45.39a11.53,11.53,0,0,0-8.64-13.84A11.4,11.4,0,0,0,88.46,31.25Z"/></svg>