<svg id="Laag_1" data-name="Laag 1" xmlns="http://www.w3.org/2000/svg" xmlns:xlink="http://www.w3.org/1999/xlink" viewBox="0 0 1600 555.17"><defs><style>.cls-1{fill:#fff;}.cls-2{fill:url(#Naamloos_verloop_3);}.cls-3{fill:url(#Naamloos_verloop_2);}</style><linearGradient id="Naamloos_verloop_3" x1="-6.21" y1="1196.28" x2="4.64" y2="1208.66" gradientTransform="matrix(39.87, 0, 0, -39.87, 345.52, 48183.63)" gradientUnits="userSpaceOnUse"><stop offset="0" stop-color="#291875"/><stop offset="0.08" stop-color="#2c1d7d"/><stop offset="1" stop-color="#4951cf"/></linearGradient><linearGradient id="Naamloos_verloop_2" x1="-14.36" y1="1191.36" x2="-1.99" y2="1204.18" gradientTransform="matrix(24.92, 0, 0, -24.92, 355.14, 30248.63)" gradientUnits="userSpaceOnUse"><stop offset="0" stop-color="#4951cf"/><stop offset="1" stop-color="#3ad7f0"/></linearGradient></defs><g id="Group_397" data-name="Group 397"><path id="Path_334" data-name="Path 334" class="cls-1" d="M892.9,381a56.31,56.31,0,0,0,45-20.47A77.4,77.4,0,0,0,956.11,307,77.78,77.78,0,0,0,937.88,254a56.6,56.6,0,0,0-45-20.84,57.33,57.33,0,0,0-45,20.89,77.7,77.7,0,0,0-18.24,53,76.71,76.71,0,0,0,18.24,53.1A57.33,57.33,0,0,0,892.9,381Zm-1.24,125.33A107.57,107.57,0,0,1,860.43,502a99.43,99.43,0,0,1-26.54-12.37,86.53,86.53,0,0,1-20.46-18.8,79.86,79.86,0,0,1-13-24.23l35.31-15a57.61,57.61,0,0,0,55.91,39.68,60.62,60.62,0,0,0,47.4-18.8,74.32,74.32,0,0,0,17-51.81V381h-1.62a74,74,0,0,1-28.56,25.69,83.24,83.24,0,0,1-39.1,9.4A86.58,86.58,0,0,1,820,384.78,115.43,115.43,0,0,1,792.38,307,113.85,113.85,0,0,1,820,229.79,86.2,86.2,0,0,1,886.79,198a83.24,83.24,0,0,1,39.1,9.4,74.06,74.06,0,0,1,28.58,25.69h1.62V204.67h35.65v196a106.29,106.29,0,0,1-27.15,77.28,97,97,0,0,1-72.9,28.41Zm170.57-159.62a31,31,0,0,0,12.38,25.07,44.54,44.54,0,0,0,29,10,58.47,58.47,0,0,0,41.94-17.88A57.07,57.07,0,0,0,1164,321.75a74.93,74.93,0,0,0-48.62-14.25,61.75,61.75,0,0,0-37.88,11.28,33.75,33.75,0,0,0-15.19,28ZM1110.49,198a90.69,90.69,0,0,1,65.23,22.77,82.15,82.15,0,0,1,23.87,62.49V409.48H1164V381h-1.6a70.62,70.62,0,0,1-61.58,35.09,78.64,78.64,0,0,1-54.92-20,64.94,64.94,0,0,1-22.09-50.19,61.61,61.61,0,0,1,23.3-50.55,96.1,96.1,0,0,1,62.19-18.79,107.35,107.35,0,0,1,54.7,12.53v-8.77a44.3,44.3,0,0,0-15.4-34.05,51.89,51.89,0,0,0-36-14,56.69,56.69,0,0,0-49.44,27.16l-32.81-21.32a90.6,90.6,0,0,1,80.22-40.1Zm223.62,211.42h-37.27l-80.22-204.71h40.51l58.34,158.75h.81l59.14-158.75h39.71Zm128.42-62.67a31,31,0,0,0,12.38,25.07,44.53,44.53,0,0,0,28.95,10,58.47,58.47,0,0,0,41.93-17.92,57,57,0,0,0,18.44-42.19,74.93,74.93,0,0,0-48.62-14.25,61.72,61.72,0,0,0-37.87,11.28A33.77,33.77,0,0,0,1462.53,346.76ZM1510.79,198A90.66,90.66,0,0,1,1576,220.81a82.15,82.15,0,0,1,23.86,62.46V409.48h-35.65V381h-1.62A70.62,70.62,0,0,1,1501,416.11a78.63,78.63,0,0,1-54.91-20,64.89,64.89,0,0,1-22.07-50.19,61.61,61.61,0,0,1,23.3-50.55,96.1,96.1,0,0,1,62.19-18.79,107.32,107.32,0,0,1,54.69,12.53v-8.77a44.29,44.29,0,0,0-15.39-34.05,51.89,51.89,0,0,0-36.07-14,56.68,56.68,0,0,0-49.43,27.16l-32.81-21.32a90.62,90.62,0,0,1,80.22-40.1Z"/><g id="Group_396" data-name="Group 396"><rect id="Rectangle_66" data-name="Rectangle 66" class="cls-2" x="65.99" width="493.3" height="493.3" rx="246.64"/><rect id="Rectangle_67" data-name="Rectangle 67" class="cls-3" y="246.85" width="308.31" height="308.31" rx="154.15"/></g></g></svg>