<svg id="Group_1092" data-name="Group 1092" xmlns="http://www.w3.org/2000/svg" width="50" height="50" viewBox="0 0 50 50">
  <path id="Path_519" data-name="Path 519" d="M510.542,205.034H490.9a1.191,1.191,0,0,0-1.193,1.188v19.649a1.19,1.19,0,0,0,1.187,1.194h19.651a1.19,1.19,0,0,0,1.193-1.188v-19.65a1.19,1.19,0,0,0-1.186-1.193Z" transform="translate(-489.704 -205.034)" fill="#fff"/>
  <path id="Path_520" data-name="Path 520" d="M536.951,205.034H517.3a1.191,1.191,0,0,0-1.189,1.19v19.646a1.19,1.19,0,0,0,1.187,1.194h19.65a1.19,1.19,0,0,0,1.191-1.19h0V206.227a1.191,1.191,0,0,0-1.188-1.193Z" transform="translate(-488.142 -205.034)" fill="#fff"/>
  <path id="Path_521" data-name="Path 521" d="M510.542,231.446H490.9a1.191,1.191,0,0,0-1.193,1.188h0v19.645a1.19,1.19,0,0,0,1.19,1.19h19.648a1.19,1.19,0,0,0,1.193-1.188V232.635a1.19,1.19,0,0,0-1.189-1.189Z" transform="translate(-489.704 -203.471)" fill="#fff"/>
  <path id="Path_522" data-name="Path 522" d="M536.951,231.446H517.3a1.191,1.191,0,0,0-1.189,1.189v19.645a1.19,1.19,0,0,0,1.189,1.19h19.647a1.19,1.19,0,0,0,1.191-1.19V232.635A1.19,1.19,0,0,0,536.951,231.446Z" transform="translate(-488.142 -203.471)" fill="#fff"/>
</svg>
