<svg xmlns="http://www.w3.org/2000/svg" width="49.995" height="50" viewBox="0 0 49.995 50">
  <path id="Path_650" data-name="Path 650" d="M181.92,226.782l0,0-20.4-20.4a4.6,4.6,0,0,0-6.51,0l-20.386,20.386-.021.021a4.6,4.6,0,0,0,3.063,7.842c.048,0,.094.006.142.006h.813v15.009a5.392,5.392,0,0,0,5.387,5.387h7.979a1.464,1.464,0,0,0,1.465-1.464v-8.716a2.461,2.461,0,0,1,2.458-2.457h4.707a2.46,2.46,0,0,1,2.457,2.457v8.716a1.464,1.464,0,0,0,1.465,1.464h7.98a5.393,5.393,0,0,0,5.387-5.387V234.638h.754a4.6,4.6,0,0,0,3.257-7.856Z" transform="translate(-133.268 -205.034)" fill="#fff"/>
</svg>
