<svg id="Group_1743" data-name="Group 1743" xmlns="http://www.w3.org/2000/svg" width="53.015" height="50" viewBox="0 0 53.015 50">
  <path id="Path_543" data-name="Path 543" d="M354.682,229.65,345.6,206.369a2.1,2.1,0,0,0-2.762-1.171,2.134,2.134,0,0,0-1.15,1.171l-8.732,23.281-12.157-11.6a2.04,2.04,0,0,0-2.922.073,2.135,2.135,0,0,0-.5,1.99l4.96,20.5a3.242,3.242,0,0,0,3.144,2.488h36.677a3.3,3.3,0,0,0,3.145-2.488l4.959-20.5a2.119,2.119,0,0,0-1.516-2.563,2.048,2.048,0,0,0-1.908.5Z" transform="translate(-317.307 -205.034)" fill="#fff"/>
  <path id="Path_544" data-name="Path 544" d="M361.525,252.239H326.448a3.221,3.221,0,0,1-3.337-3.092v-.008h0a3.221,3.221,0,0,1,3.33-3.1h35.013a3.223,3.223,0,0,1,3.338,3.092v.008h0A3.2,3.2,0,0,1,361.525,252.239Z" transform="translate(-317.307 -202.239)" fill="#fff"/>
</svg>
