<svg xmlns="http://www.w3.org/2000/svg" width="15.55" height="13.515" viewBox="0 0 15.55 13.515">
  <g id="Group_1245" data-name="Group 1245" transform="translate(0)">
    <path id="Path_531" data-name="Path 531" d="M23.246,22.608l-2.663-6.7a.62.62,0,0,0-1.147,0l-2.561,6.7-3.564-3.339a.606.606,0,0,0-1,.594l1.454,5.9a.947.947,0,0,0,.922.717H25.438a.965.965,0,0,0,.922-.717l1.454-5.9a.609.609,0,0,0-1-.594Z" transform="translate(-12.283 -15.525)" fill="#fff"/>
    <path id="Path_532" data-name="Path 532" d="M32.183,74.026H22.063a.962.962,0,0,1-.963-.963h0a.962.962,0,0,1,.963-.963h10.1a.962.962,0,0,1,.963.963h0A.958.958,0,0,1,32.183,74.026Z" transform="translate(-19.294 -60.51)" fill="#fff"/>
  </g>
</svg>
