<svg id="Laag_2" data-name="Laag 2" xmlns="http://www.w3.org/2000/svg" viewBox="0 0 106.02 100.01"><defs><style>.cls-1{fill:#291875;}</style></defs><g id="Group_1743" data-name="Group 1743"><path id="Path_543" data-name="Path 543" class="cls-1" d="M74.75,49.23,56.58,2.67A4.19,4.19,0,0,0,51.16.28h-.1a4.24,4.24,0,0,0-2.3,2.35L31.3,49.23,7,26a4.07,4.07,0,0,0-5.76.06h0l-.07.07a4.25,4.25,0,0,0-1,4l9.92,41a6.49,6.49,0,0,0,6.29,5H89.7a6.59,6.59,0,0,0,6.29-5l9.92-41a4.23,4.23,0,0,0-3-5.12,4.09,4.09,0,0,0-3.82,1Z" transform="translate(-0.02 0)"/><path id="Path_544" data-name="Path 544" class="cls-1" d="M88.43,100H18.28a6.44,6.44,0,0,1-6.67-6.19h0a6.44,6.44,0,0,1,6.66-6.2h70A6.44,6.44,0,0,1,95,93.75v0h0A6.42,6.42,0,0,1,88.43,100Z" transform="translate(-0.02 0)"/></g></svg>