<svg id="Laag_2" data-name="Laag 2" xmlns="http://www.w3.org/2000/svg" viewBox="0 0 100 100"><defs><style>.cls-1{fill:#dadada;}</style></defs><path id="Path_640" data-name="Path 640" class="cls-1" d="M50,0a50,50,0,1,0,50,50A50,50,0,0,0,50,0Zm5.78,85.2a8,8,0,0,1-5.94,2.51,7.69,7.69,0,0,1-5.78-2.4,8.22,8.22,0,0,1-2.29-5.89,8.1,8.1,0,0,1,2.35-5.88A7.83,7.83,0,0,1,50,71.14,8.2,8.2,0,0,1,55.77,85.2ZM58,29q-.64,4.14-1.85,11c-.72,3.92-1.31,7.56-1.74,10.9s-.91,7-1.42,11.11a4.22,4.22,0,0,1-1.2,2.67,2.26,2.26,0,0,1-1.85.55,3.21,3.21,0,0,1-1.8-1,3.3,3.3,0,0,1-.92-2q-.77-5.67-1.53-11T43.79,40q-1.2-6.65-1.8-10.9-.43-2.7-.6-5.45a13.39,13.39,0,0,1,2.29-8.39,8.25,8.25,0,0,1,11.63-1,8.67,8.67,0,0,1,1,1,13.45,13.45,0,0,1,2.29,8.39A45.37,45.37,0,0,1,58,29Z"/></svg>