<svg xmlns="http://www.w3.org/2000/svg" width="20.621" height="12.674" viewBox="0 0 20.621 12.674">
  <path id="Path_790" data-name="Path 790" d="M4.909-15.036H7.576l4.657,12.4H9.653L8.632-5.6H3.853L2.832-2.639H.252ZM7.87-7.747l-1.108-3.1-.45-1.506H6.173l-.45,1.506-1.108,3.1ZM18.639-3.54H18.5a3.826,3.826,0,0,1-.961.831,2.722,2.722,0,0,1-1.446.346,3.512,3.512,0,0,1-1.238-.216,3.22,3.22,0,0,1-1.013-.6,2.671,2.671,0,0,1-.675-.918,2.827,2.827,0,0,1-.242-1.177,2.651,2.651,0,0,1,.26-1.186,2.7,2.7,0,0,1,.727-.909,3.28,3.28,0,0,1,1.1-.58,4.56,4.56,0,0,1,1.376-.2,5.966,5.966,0,0,1,1.368.13,6.634,6.634,0,0,1,.883.268v-.26A1.385,1.385,0,0,0,18.1-9.123a2.029,2.029,0,0,0-1.333-.441,2.491,2.491,0,0,0-1.991.987L13.133-9.7a4.459,4.459,0,0,1,3.688-1.7,4.387,4.387,0,0,1,3.013.926A3.486,3.486,0,0,1,20.873-7.73v5.09H18.639Zm0-2.545a4.689,4.689,0,0,0-.822-.3A3.605,3.605,0,0,0,16.89-6.5a1.958,1.958,0,0,0-1.255.355,1.082,1.082,0,0,0-.441.874.981.981,0,0,0,.424.831,1.609,1.609,0,0,0,.978.312,2.074,2.074,0,0,0,.831-.164,2.063,2.063,0,0,0,.649-.433,1.9,1.9,0,0,0,.416-.623A1.9,1.9,0,0,0,18.639-6.085Z" transform="translate(-0.252 15.036)" fill="#4951cf"/>
</svg>
